  0
SECTION
  2
HEADER
  9
$ACADVER
  1
AC1024
  9
$ACADMAINTVER
 70
     6
  9
$DWGCODEPAGE
  3
ANSI_1251
  9
$INSBASE
 10
0.0
 20
0.0
 30
0.0
  9
$EXTMIN
 10
-0.0000000000000738
 20
0.0
 30
0.0
  9
$EXTMAX
 10
400.0000000000001
 20
650.0000000000002
 30
0.0
  9
$LIMMIN
 10
0.0
 20
0.0
  9
$LIMMAX
 10
420.0
 20
297.0
  9
$ORTHOMODE
 70
     0
  9
$REGENMODE
 70
     1
  9
$FILLMODE
 70
     1
  9
$QTEXTMODE
 70
     0
  9
$MIRRTEXT
 70
     0
  9
$LTSCALE
 40
1.0
  9
$ATTMODE
 70
     1
  9
$TEXTSIZE
 40
25.0
  9
$TRACEWID
 40
1.0
  9
$TEXTSTYLE
  7
Standard
  9
$CLAYER
  8
0
  9
$CELTYPE
  6
ByLayer
  9
$CECOLOR
 62
   256
  9
$CELTSCALE
 40
1.0
  9
$DISPSILH
 70
     0
  9
$DIMSCALE
 40
1.0
  9
$DIMASZ
 40
2.5
  9
$DIMEXO
 40
0.625
  9
$DIMDLI
 40
3.75
  9
$DIMRND
 40
0.0
  9
$DIMDLE
 40
0.0
  9
$DIMEXE
 40
1.25
  9
$DIMTP
 40
0.0
  9
$DIMTM
 40
0.0
  9
$DIMTXT
 40
2.5
  9
$DIMCEN
 40
2.5
  9
$DIMTSZ
 40
0.0
  9
$DIMTOL
 70
     0
  9
$DIMLIM
 70
     0
  9
$DIMTIH
 70
     0
  9
$DIMTOH
 70
     0
  9
$DIMSE1
 70
     0
  9
$DIMSE2
 70
     0
  9
$DIMTAD
 70
     1
  9
$DIMZIN
 70
     8
  9
$DIMBLK
  1

  9
$DIMASO
 70
     1
  9
$DIMSHO
 70
     1
  9
$DIMPOST
  1

  9
$DIMAPOST
  1

  9
$DIMALT
 70
     0
  9
$DIMALTD
 70
     3
  9
$DIMALTF
 40
0.03937007874016
  9
$DIMLFAC
 40
1.0
  9
$DIMTOFL
 70
     1
  9
$DIMTVP
 40
0.0
  9
$DIMTIX
 70
     0
  9
$DIMSOXD
 70
     0
  9
$DIMSAH
 70
     0
  9
$DIMBLK1
  1

  9
$DIMBLK2
  1

  9
$DIMSTYLE
  2
ISO-25
  9
$DIMCLRD
 70
     0
  9
$DIMCLRE
 70
     0
  9
$DIMCLRT
 70
     0
  9
$DIMTFAC
 40
1.0
  9
$DIMGAP
 40
0.625
  9
$DIMJUST
 70
     0
  9
$DIMSD1
 70
     0
  9
$DIMSD2
 70
     0
  9
$DIMTOLJ
 70
     0
  9
$DIMTZIN
 70
     8
  9
$DIMALTZ
 70
     0
  9
$DIMALTTZ
 70
     0
  9
$DIMUPT
 70
     0
  9
$DIMDEC
 70
     2
  9
$DIMTDEC
 70
     2
  9
$DIMALTU
 70
     2
  9
$DIMALTTD
 70
     3
  9
$DIMTXSTY
  7
Standard
  9
$DIMAUNIT
 70
     0
  9
$DIMADEC
 70
     0
  9
$DIMALTRND
 40
0.0
  9
$DIMAZIN
 70
     0
  9
$DIMDSEP
 70
    44
  9
$DIMATFIT
 70
     3
  9
$DIMFRAC
 70
     0
  9
$DIMLDRBLK
  1

  9
$DIMLUNIT
 70
     2
  9
$DIMLWD
 70
    -2
  9
$DIMLWE
 70
    -2
  9
$DIMTMOVE
 70
     0
  9
$DIMFXL
 40
1.0
  9
$DIMFXLON
 70
     0
  9
$DIMJOGANG
 40
0.7853981633974483
  9
$DIMTFILL
 70
     0
  9
$DIMTFILLCLR
 70
     0
  9
$DIMARCSYM
 70
     0
  9
$DIMLTYPE
  6

  9
$DIMLTEX1
  6

  9
$DIMLTEX2
  6

  9
$DIMTXTDIRECTION
 70
     0
  9
$LUNITS
 70
     2
  9
$LUPREC
 70
     3
  9
$SKETCHINC
 40
1.0
  9
$FILLETRAD
 40
2.5
  9
$AUNITS
 70
     0
  9
$AUPREC
 70
     0
  9
$MENU
  1
.
  9
$ELEVATION
 40
0.0
  9
$PELEVATION
 40
0.0
  9
$THICKNESS
 40
0.0
  9
$LIMCHECK
 70
     0
  9
$CHAMFERA
 40
10.0
  9
$CHAMFERB
 40
10.0
  9
$CHAMFERC
 40
20.0
  9
$CHAMFERD
 40
0.0
  9
$SKPOLY
 70
     0
  9
$TDCREATE
 40
2455022.679026169
  9
$TDUCREATE
 40
2455022.637359514
  9
$TDUPDATE
 40
2456477.646828692
  9
$TDUUPDATE
 40
2456477.605162037
  9
$TDINDWG
 40
0.0
  9
$TDUSRTIMER
 40
2456477.586597222
  9
$USRTIMER
 70
     1
  9
$ANGBASE
 50
0.0
  9
$ANGDIR
 70
     0
  9
$PDMODE
 70
     0
  9
$PDSIZE
 40
0.0
  9
$PLINEWID
 40
0.0
  9
$SPLFRAME
 70
     0
  9
$SPLINETYPE
 70
     6
  9
$SPLINESEGS
 70
     8
  9
$HANDSEED
  5
296
  9
$SURFTAB1
 70
     6
  9
$SURFTAB2
 70
     6
  9
$SURFTYPE
 70
     6
  9
$SURFU
 70
     6
  9
$SURFV
 70
     6
  9
$UCSBASE
  2

  9
$UCSNAME
  2

  9
$UCSORG
 10
0.0
 20
0.0
 30
0.0
  9
$UCSXDIR
 10
1.0
 20
0.0
 30
0.0
  9
$UCSYDIR
 10
0.0
 20
1.0
 30
0.0
  9
$UCSORTHOREF
  2

  9
$UCSORTHOVIEW
 70
     0
  9
$UCSORGTOP
 10
0.0
 20
0.0
 30
0.0
  9
$UCSORGBOTTOM
 10
0.0
 20
0.0
 30
0.0
  9
$UCSORGLEFT
 10
0.0
 20
0.0
 30
0.0
  9
$UCSORGRIGHT
 10
0.0
 20
0.0
 30
0.0
  9
$UCSORGFRONT
 10
0.0
 20
0.0
 30
0.0
  9
$UCSORGBACK
 10
0.0
 20
0.0
 30
0.0
  9
$PUCSBASE
  2

  9
$PUCSNAME
  2

  9
$PUCSORG
 10
0.0
 20
0.0
 30
0.0
  9
$PUCSXDIR
 10
1.0
 20
0.0
 30
0.0
  9
$PUCSYDIR
 10
0.0
 20
1.0
 30
0.0
  9
$PUCSORTHOREF
  2

  9
$PUCSORTHOVIEW
 70
     0
  9
$PUCSORGTOP
 10
0.0
 20
0.0
 30
0.0
  9
$PUCSORGBOTTOM
 10
0.0
 20
0.0
 30
0.0
  9
$PUCSORGLEFT
 10
0.0
 20
0.0
 30
0.0
  9
$PUCSORGRIGHT
 10
0.0
 20
0.0
 30
0.0
  9
$PUCSORGFRONT
 10
0.0
 20
0.0
 30
0.0
  9
$PUCSORGBACK
 10
0.0
 20
0.0
 30
0.0
  9
$USERI1
 70
     0
  9
$USERI2
 70
     0
  9
$USERI3
 70
     0
  9
$USERI4
 70
     0
  9
$USERI5
 70
     0
  9
$USERR1
 40
0.0
  9
$USERR2
 40
0.0
  9
$USERR3
 40
0.0
  9
$USERR4
 40
0.0
  9
$USERR5
 40
0.0
  9
$WORLDVIEW
 70
     1
  9
$SHADEDGE
 70
     3
  9
$SHADEDIF
 70
    70
  9
$TILEMODE
 70
     1
  9
$MAXACTVP
 70
    64
  9
$PINSBASE
 10
0.0
 20
0.0
 30
0.0
  9
$PLIMCHECK
 70
     0
  9
$PEXTMIN
 10
1.000000000000000E+20
 20
1.000000000000000E+20
 30
1.000000000000000E+20
  9
$PEXTMAX
 10
-1.000000000000000E+20
 20
-1.000000000000000E+20
 30
-1.000000000000000E+20
  9
$PLIMMIN
 10
0.0
 20
0.0
  9
$PLIMMAX
 10
0.0
 20
0.0
  9
$UNITMODE
 70
     0
  9
$VISRETAIN
 70
     1
  9
$PLINEGEN
 70
     0
  9
$PSLTSCALE
 70
     1
  9
$TREEDEPTH
 70
  3020
  9
$CMLSTYLE
  2
Standard
  9
$CMLJUST
 70
     0
  9
$CMLSCALE
 40
20.0
  9
$PROXYGRAPHICS
 70
     1
  9
$MEASUREMENT
 70
     1
  9
$CELWEIGHT
370
    -1
  9
$ENDCAPS
280
     0
  9
$JOINSTYLE
280
     0
  9
$LWDISPLAY
290
     0
  9
$INSUNITS
 70
     4
  9
$HYPERLINKBASE
  1

  9
$STYLESHEET
  1

  9
$XEDIT
290
     1
  9
$CEPSNTYPE
380
     0
  9
$PSTYLEMODE
290
     1
  9
$FINGERPRINTGUID
  2
{EC6BB858-51AA-46EC-B484-6C9CC7AB3E2E}
  9
$VERSIONGUID
  2
{FAEB1C32-E019-11D5-929B-00C0DF256EC4}
  9
$EXTNAMES
290
     1
  9
$PSVPSCALE
 40
0.0
  9
$OLESTARTUP
290
     0
  9
$SORTENTS
280
   127
  9
$INDEXCTL
280
     0
  9
$HIDETEXT
280
     1
  9
$XCLIPFRAME
280
     0
  9
$HALOGAP
280
     0
  9
$OBSCOLOR
 70
   257
  9
$OBSLTYPE
280
     0
  9
$INTERSECTIONDISPLAY
280
     0
  9
$INTERSECTIONCOLOR
 70
   257
  9
$DIMASSOC
280
     2
  9
$PROJECTNAME
  1

  9
$CAMERADISPLAY
290
     0
  9
$LENSLENGTH
 40
50.0
  9
$CAMERAHEIGHT
 40
0.0
  9
$STEPSPERSEC
 40
2.0
  9
$STEPSIZE
 40
6.0
  9
$3DDWFPREC
 40
2.0
  9
$PSOLWIDTH
 40
5.0
  9
$PSOLHEIGHT
 40
80.0
  9
$LOFTANG1
 40
1.570796326794897
  9
$LOFTANG2
 40
1.570796326794897
  9
$LOFTMAG1
 40
0.0
  9
$LOFTMAG2
 40
0.0
  9
$LOFTPARAM
 70
     7
  9
$LOFTNORMALS
280
     1
  9
$LATITUDE
 40
37.795
  9
$LONGITUDE
 40
-122.394
  9
$NORTHDIRECTION
 40
0.0
  9
$TIMEZONE
 70
 -8000
  9
$LIGHTGLYPHDISPLAY
280
     1
  9
$TILEMODELIGHTSYNCH
280
     1
  9
$SOLIDHIST
280
     1
  9
$SHOWHIST
280
     1
  9
$DWFFRAME
280
     2
  9
$DGNFRAME
280
     2
  9
$REALWORLDSCALE
290
     1
  9
$INTERFERECOLOR
 62
   256
  9
$CSHADOW
280
     0
  9
$SHADOWPLANELOCATION
 40
0.0
  0
ENDSEC
  0
SECTION
  2
CLASSES
  0
CLASS
  1
ACDBDICTIONARYWDFLT
  2
AcDbDictionaryWithDefault
  3
ObjectDBX Classes
 90
        0
 91
        7
280
     0
281
     0
  0
CLASS
  1
VISUALSTYLE
  2
AcDbVisualStyle
  3
ObjectDBX Classes
 90
     4095
 91
        7
280
     0
281
     0
  0
CLASS
  1
TABLESTYLE
  2
AcDbTableStyle
  3
ObjectDBX Classes
 90
     4095
 91
        7
280
     0
281
     0
  0
CLASS
  1
DICTIONARYVAR
  2
AcDbDictionaryVar
  3
ObjectDBX Classes
 90
        0
 91
        7
280
     0
281
     0
  0
CLASS
  1
SCALE
  2
AcDbScale
  3
ObjectDBX Classes
 90
     1153
 91
        7
280
     0
281
     0
  0
CLASS
  1
CELLSTYLEMAP
  2
AcDbCellStyleMap
  3
ObjectDBX Classes
 90
     1152
 91
        7
280
     0
281
     0
  0
CLASS
  1
RASTERVARIABLES
  2
AcDbRasterVariables
  3
ISM
 90
        0
 91
        7
280
     0
281
     0
  0
CLASS
  1
MATERIAL
  2
AcDbMaterial
  3
ObjectDBX Classes
 90
     1153
 91
        7
280
     0
281
     0
  0
ENDSEC
  0
SECTION
  2
TABLES
  0
TABLE
  2
VPORT
  5
8
330
0
100
AcDbSymbolTable
 70
     1
  0
VPORT
  5
29
330
8
100
AcDbSymbolTableRecord
100
AcDbViewportTableRecord
  2
*Active
 70
     0
 10
0.0
 20
0.0
 11
1.0
 21
1.0
 12
419.1196990062656
 22
264.9476763665268
 13
0.0
 23
0.0
 14
10.0
 24
10.0
 15
10.0
 25
10.0
 16
0.0
 26
0.0
 36
1.0
 17
-134.1869158878505
 27
0.0
 37
0.0
 40
940.4296874999978
 41
2.414746543778802
 42
50.0
 43
0.0
 44
0.0
 50
0.0
 51
0.0
 71
    16
 72
  1000
 73
     1
 74
     3
 75
     0
 76
     0
 77
     0
 78
     0
281
     0
 65
     1
110
0.0
120
0.0
130
0.0
111
1.0
121
0.0
131
0.0
112
0.0
122
1.0
132
0.0
 79
     0
146
0.0
 60
     3
 61
     5
292
     1
282
     1
141
0.0
142
0.0
 63
   256
  0
ENDTAB
  0
TABLE
  2
LTYPE
  5
5
330
0
100
AcDbSymbolTable
 70
     1
  0
LTYPE
  5
14
330
5
100
AcDbSymbolTableRecord
100
AcDbLinetypeTableRecord
  2
ByBlock
 70
     0
  3

 72
    65
 73
     0
 40
0.0
  0
LTYPE
  5
15
330
5
100
AcDbSymbolTableRecord
100
AcDbLinetypeTableRecord
  2
ByLayer
 70
     0
  3

 72
    65
 73
     0
 40
0.0
  0
LTYPE
  5
16
330
5
100
AcDbSymbolTableRecord
100
AcDbLinetypeTableRecord
  2
Continuous
 70
     0
  3
Solid line
 72
    65
 73
     0
 40
0.0
  0
ENDTAB
  0
TABLE
  2
LAYER
  5
2
330
0
100
AcDbSymbolTable
 70
     1
  0
LAYER
  5
10
330
2
100
AcDbSymbolTableRecord
100
AcDbLayerTableRecord
  2
0
 70
     0
 62
     7
  6
Continuous
370
    -3
390
F
347
75
  0
ENDTAB
  0
TABLE
  2
STYLE
  5
3
330
0
100
AcDbSymbolTable
 70
     1
  0
STYLE
  5
11
330
3
100
AcDbSymbolTableRecord
100
AcDbTextStyleTableRecord
  2
Standard
 70
     0
 40
0.0
 41
1.0
 50
0.0
 71
     0
 42
25.0
  3
arial.ttf
  4

1001
ACAD
1000
Arial
1071
        0
  0
ENDTAB
  0
TABLE
  2
VIEW
  5
6
330
0
100
AcDbSymbolTable
 70
     0
  0
ENDTAB
  0
TABLE
  2
UCS
  5
7
330
0
100
AcDbSymbolTable
 70
     0
  0
ENDTAB
  0
TABLE
  2
APPID
  5
9
330
0
100
AcDbSymbolTable
 70
     1
  0
APPID
  5
12
330
9
100
AcDbSymbolTableRecord
100
AcDbRegAppTableRecord
  2
ACAD
 70
     0
  0
ENDTAB
  0
TABLE
  2
DIMSTYLE
  5
A
330
0
100
AcDbSymbolTable
 70
     1
100
AcDbDimStyleTable
  0
DIMSTYLE
105
27
330
A
100
AcDbSymbolTableRecord
100
AcDbDimStyleTableRecord
  2
ISO-25
 70
     0
 41
2.5
 42
0.625
 43
3.75
 44
1.25
 73
     0
 74
     0
 77
     1
 78
     8
140
2.5
141
2.5
143
0.03937007874016
147
0.625
171
     3
172
     1
178
     0
271
     2
272
     2
274
     3
278
    44
283
     0
284
     8
340
11
  0
ENDTAB
  0
TABLE
  2
BLOCK_RECORD
  5
1
330
0
100
AcDbSymbolTable
 70
     1
  0
BLOCK_RECORD
  5
1F
330
1
100
AcDbSymbolTableRecord
100
AcDbBlockTableRecord
  2
*Model_Space
340
22
 70
     0
280
     1
281
     0
  0
BLOCK_RECORD
  5
1B
330
1
100
AcDbSymbolTableRecord
100
AcDbBlockTableRecord
  2
*Paper_Space
340
1E
 70
     0
280
     1
281
     0
  0
BLOCK_RECORD
  5
23
330
1
100
AcDbSymbolTableRecord
100
AcDbBlockTableRecord
  2
*Paper_Space0
340
26
 70
     0
280
     1
281
     0
  0
ENDTAB
  0
ENDSEC
  0
SECTION
  2
BLOCKS
  0
BLOCK
  5
20
330
1F
100
AcDbEntity
  8
0
100
AcDbBlockBegin
  2
*Model_Space
 70
     0
 10
0.0
 20
0.0
 30
0.0
  3
*Model_Space
  1

  0
ENDBLK
  5
21
330
1F
100
AcDbEntity
  8
0
100
AcDbBlockEnd
  0
BLOCK
  5
1C
330
1B
100
AcDbEntity
 67
     1
  8
0
100
AcDbBlockBegin
  2
*Paper_Space
 70
     0
 10
0.0
 20
0.0
 30
0.0
  3
*Paper_Space
  1

  0
ENDBLK
  5
1D
330
1B
100
AcDbEntity
 67
     1
  8
0
100
AcDbBlockEnd
  0
BLOCK
  5
24
330
23
100
AcDbEntity
  8
0
100
AcDbBlockBegin
  2
*Paper_Space0
 70
     0
 10
0.0
 20
0.0
 30
0.0
  3
*Paper_Space0
  1

  0
ENDBLK
  5
25
330
23
100
AcDbEntity
  8
0
100
AcDbBlockEnd
  0
ENDSEC
  0
SECTION
  2
ENTITIES
  0
LWPOLYLINE
  5
76
330
1F
100
AcDbEntity
  8
0
100
AcDbPolyline
 90
        2
 70
     0
 43
0.0
 10
0.0
 20
27.0
 10
0.0
 20
173.0
  0
LINE
  5
E6
330
1F
100
AcDbEntity
  8
0
100
AcDbLine
 10
0.0000000000000004
 20
327.0
 30
0.0
 11
5.0
 21
327.0
 31
0.0
  0
LINE
  5
E7
330
1F
100
AcDbEntity
  8
0
100
AcDbLine
 10
5.0
 20
327.0
 30
0.0
 11
5.000000000000001
 21
328.5
 31
0.0
  0
LINE
  5
E8
330
1F
100
AcDbEntity
  8
0
100
AcDbLine
 10
5.000000000000001
 20
328.5
 30
0.0
 11
10.0
 21
328.5
 31
0.0
  0
LINE
  5
E9
330
1F
100
AcDbEntity
  8
0
100
AcDbLine
 10
10.0
 20
328.5
 30
0.0
 11
10.0
 21
321.5
 31
0.0
  0
LINE
  5
EA
330
1F
100
AcDbEntity
  8
0
100
AcDbLine
 10
10.0
 20
321.5
 30
0.0
 11
4.999999999999999
 21
321.5
 31
0.0
  0
LINE
  5
EB
330
1F
100
AcDbEntity
  8
0
100
AcDbLine
 10
4.999999999999999
 20
321.5
 30
0.0
 11
5.0
 21
323.0
 31
0.0
  0
LINE
  5
EC
330
1F
100
AcDbEntity
  8
0
100
AcDbLine
 10
5.0
 20
323.0
 30
0.0
 11
-0.0000000000000004
 21
323.0
 31
0.0
  0
LINE
  5
117
330
1F
100
AcDbEntity
  8
0
100
AcDbLine
 10
-0.0000000000000364
 20
477.0
 30
0.0
 11
4.999999999999964
 21
477.0
 31
0.0
  0
LINE
  5
118
330
1F
100
AcDbEntity
  8
0
100
AcDbLine
 10
4.999999999999964
 20
477.0
 30
0.0
 11
4.999999999999964
 21
478.5
 31
0.0
  0
LINE
  5
119
330
1F
100
AcDbEntity
  8
0
100
AcDbLine
 10
4.999999999999964
 20
478.5
 30
0.0
 11
9.999999999999963
 21
478.5
 31
0.0
  0
LINE
  5
11A
330
1F
100
AcDbEntity
  8
0
100
AcDbLine
 10
9.999999999999963
 20
478.5
 30
0.0
 11
9.999999999999963
 21
471.5
 31
0.0
  0
LINE
  5
11B
330
1F
100
AcDbEntity
  8
0
100
AcDbLine
 10
9.999999999999963
 20
471.5
 30
0.0
 11
4.999999999999963
 21
471.5
 31
0.0
  0
LINE
  5
11C
330
1F
100
AcDbEntity
  8
0
100
AcDbLine
 10
4.999999999999963
 20
471.5
 30
0.0
 11
4.999999999999964
 21
473.0
 31
0.0
  0
LINE
  5
11D
330
1F
100
AcDbEntity
  8
0
100
AcDbLine
 10
4.999999999999964
 20
473.0
 30
0.0
 11
-0.0000000000000371
 21
473.0
 31
0.0
  0
LINE
  5
11E
330
1F
100
AcDbEntity
  8
0
100
AcDbLine
 10
-0.0000000000000731
 20
627.0
 30
0.0
 11
4.999999999999926
 21
627.0
 31
0.0
  0
LINE
  5
11F
330
1F
100
AcDbEntity
  8
0
100
AcDbLine
 10
4.999999999999926
 20
627.0
 30
0.0
 11
4.999999999999927
 21
628.5
 31
0.0
  0
LINE
  5
120
330
1F
100
AcDbEntity
  8
0
100
AcDbLine
 10
4.999999999999927
 20
628.5
 30
0.0
 11
9.999999999999927
 21
628.5
 31
0.0
  0
LINE
  5
121
330
1F
100
AcDbEntity
  8
0
100
AcDbLine
 10
9.999999999999927
 20
628.5
 30
0.0
 11
9.999999999999927
 21
621.5
 31
0.0
  0
LINE
  5
122
330
1F
100
AcDbEntity
  8
0
100
AcDbLine
 10
9.999999999999927
 20
621.5
 30
0.0
 11
4.999999999999925
 21
621.5
 31
0.0
  0
LINE
  5
123
330
1F
100
AcDbEntity
  8
0
100
AcDbLine
 10
4.999999999999925
 20
621.5
 30
0.0
 11
4.999999999999926
 21
623.0
 31
0.0
  0
LINE
  5
124
330
1F
100
AcDbEntity
  8
0
100
AcDbLine
 10
4.999999999999926
 20
623.0
 30
0.0
 11
-0.0000000000000738
 21
623.0
 31
0.0
  0
LINE
  5
125
330
1F
100
AcDbEntity
  8
0
100
AcDbLine
 10
0.0000000000000371
 20
177.0
 30
0.0
 11
5.000000000000036
 21
177.0
 31
0.0
  0
LINE
  5
126
330
1F
100
AcDbEntity
  8
0
100
AcDbLine
 10
5.000000000000036
 20
177.0
 30
0.0
 11
5.000000000000037
 21
178.5
 31
0.0
  0
LINE
  5
127
330
1F
100
AcDbEntity
  8
0
100
AcDbLine
 10
5.000000000000037
 20
178.5
 30
0.0
 11
10.00000000000004
 21
178.5
 31
0.0
  0
LINE
  5
128
330
1F
100
AcDbEntity
  8
0
100
AcDbLine
 10
10.00000000000004
 20
178.5
 30
0.0
 11
10.00000000000004
 21
171.5
 31
0.0
  0
LINE
  5
129
330
1F
100
AcDbEntity
  8
0
100
AcDbLine
 10
10.00000000000004
 20
171.5
 30
0.0
 11
5.000000000000036
 21
171.5
 31
0.0
  0
LINE
  5
12A
330
1F
100
AcDbEntity
  8
0
100
AcDbLine
 10
5.000000000000036
 20
171.5
 30
0.0
 11
5.000000000000036
 21
173.0
 31
0.0
  0
LINE
  5
12B
330
1F
100
AcDbEntity
  8
0
100
AcDbLine
 10
5.000000000000036
 20
173.0
 30
0.0
 11
0.0000000000000364
 21
173.0
 31
0.0
  0
LINE
  5
12C
330
1F
100
AcDbEntity
  8
0
100
AcDbLine
 10
0.0000000000000738
 20
27.0
 30
0.0
 11
5.000000000000074
 21
27.0
 31
0.0
  0
LINE
  5
12D
330
1F
100
AcDbEntity
  8
0
100
AcDbLine
 10
5.000000000000074
 20
27.0
 30
0.0
 11
5.000000000000075
 21
28.5
 31
0.0
  0
LINE
  5
12E
330
1F
100
AcDbEntity
  8
0
100
AcDbLine
 10
5.000000000000075
 20
28.5
 30
0.0
 11
10.00000000000007
 21
28.5
 31
0.0
  0
LINE
  5
12F
330
1F
100
AcDbEntity
  8
0
100
AcDbLine
 10
10.00000000000007
 20
28.5
 30
0.0
 11
10.00000000000007
 21
21.5
 31
0.0
  0
LINE
  5
130
330
1F
100
AcDbEntity
  8
0
100
AcDbLine
 10
10.00000000000007
 20
21.5
 30
0.0
 11
5.000000000000073
 21
21.5
 31
0.0
  0
LINE
  5
131
330
1F
100
AcDbEntity
  8
0
100
AcDbLine
 10
5.000000000000073
 20
21.5
 30
0.0
 11
5.000000000000074
 21
23.0
 31
0.0
  0
LINE
  5
132
330
1F
100
AcDbEntity
  8
0
100
AcDbLine
 10
5.000000000000074
 20
23.0
 30
0.0
 11
0.0000000000000731
 21
23.0
 31
0.0
  0
LWPOLYLINE
  5
133
330
1F
100
AcDbEntity
  8
0
100
AcDbPolyline
 90
        2
 70
     0
 43
0.0
 10
0.0
 20
177.0
 10
0.0
 20
323.0
  0
LWPOLYLINE
  5
134
330
1F
100
AcDbEntity
  8
0
100
AcDbPolyline
 90
        2
 70
     0
 43
0.0
 10
0.0
 20
327.0
 10
0.0
 20
473.0
  0
LWPOLYLINE
  5
135
330
1F
100
AcDbEntity
  8
0
100
AcDbPolyline
 90
        2
 70
     0
 43
0.0
 10
0.0
 20
477.0
 10
0.0
 20
623.0
  0
LWPOLYLINE
  5
136
330
1F
100
AcDbEntity
  8
0
100
AcDbPolyline
 90
        3
 70
     0
 43
0.0
 10
0.0
 20
627.0
 10
0.0
 20
650.0000000000001
 10
22.99999999999999
 20
650.0000000000001
  0
LINE
  5
137
330
1F
100
AcDbEntity
  8
0
100
AcDbLine
 10
400.0
 20
327.0
 30
0.0
 11
395.0
 21
327.0
 31
0.0
  0
LINE
  5
138
330
1F
100
AcDbEntity
  8
0
100
AcDbLine
 10
395.0
 20
327.0
 30
0.0
 11
395.0
 21
328.5
 31
0.0
  0
LINE
  5
139
330
1F
100
AcDbEntity
  8
0
100
AcDbLine
 10
395.0
 20
328.5
 30
0.0
 11
390.0
 21
328.5
 31
0.0
  0
LINE
  5
13A
330
1F
100
AcDbEntity
  8
0
100
AcDbLine
 10
390.0
 20
328.5
 30
0.0
 11
390.0
 21
321.5
 31
0.0
  0
LINE
  5
13B
330
1F
100
AcDbEntity
  8
0
100
AcDbLine
 10
390.0
 20
321.5
 30
0.0
 11
395.0
 21
321.5
 31
0.0
  0
LINE
  5
13C
330
1F
100
AcDbEntity
  8
0
100
AcDbLine
 10
395.0
 20
321.5
 30
0.0
 11
395.0
 21
323.0
 31
0.0
  0
LINE
  5
13D
330
1F
100
AcDbEntity
  8
0
100
AcDbLine
 10
395.0
 20
323.0
 30
0.0
 11
400.0
 21
323.0
 31
0.0
  0
LINE
  5
13E
330
1F
100
AcDbEntity
  8
0
100
AcDbLine
 10
400.0000000000001
 20
477.0
 30
0.0
 11
395.0000000000001
 21
477.0
 31
0.0
  0
LINE
  5
13F
330
1F
100
AcDbEntity
  8
0
100
AcDbLine
 10
395.0000000000001
 20
477.0
 30
0.0
 11
395.0000000000001
 21
478.5
 31
0.0
  0
LINE
  5
140
330
1F
100
AcDbEntity
  8
0
100
AcDbLine
 10
395.0000000000001
 20
478.5
 30
0.0
 11
390.0000000000001
 21
478.5
 31
0.0
  0
LINE
  5
141
330
1F
100
AcDbEntity
  8
0
100
AcDbLine
 10
390.0000000000001
 20
478.5
 30
0.0
 11
390.0000000000001
 21
471.5
 31
0.0
  0
LINE
  5
142
330
1F
100
AcDbEntity
  8
0
100
AcDbLine
 10
390.0000000000001
 20
471.5
 30
0.0
 11
395.0000000000001
 21
471.5
 31
0.0
  0
LINE
  5
143
330
1F
100
AcDbEntity
  8
0
100
AcDbLine
 10
395.0000000000001
 20
471.5
 30
0.0
 11
395.0000000000001
 21
473.0
 31
0.0
  0
LINE
  5
144
330
1F
100
AcDbEntity
  8
0
100
AcDbLine
 10
395.0000000000001
 20
473.0
 30
0.0
 11
400.0000000000001
 21
473.0
 31
0.0
  0
LINE
  5
145
330
1F
100
AcDbEntity
  8
0
100
AcDbLine
 10
400.0000000000001
 20
627.0
 30
0.0
 11
395.0000000000001
 21
627.0
 31
0.0
  0
LINE
  5
146
330
1F
100
AcDbEntity
  8
0
100
AcDbLine
 10
395.0000000000001
 20
627.0
 30
0.0
 11
395.0000000000001
 21
628.5
 31
0.0
  0
LINE
  5
147
330
1F
100
AcDbEntity
  8
0
100
AcDbLine
 10
395.0000000000001
 20
628.5
 30
0.0
 11
390.0000000000001
 21
628.5
 31
0.0
  0
LINE
  5
148
330
1F
100
AcDbEntity
  8
0
100
AcDbLine
 10
390.0000000000001
 20
628.5
 30
0.0
 11
390.0000000000001
 21
621.5
 31
0.0
  0
LINE
  5
149
330
1F
100
AcDbEntity
  8
0
100
AcDbLine
 10
390.0000000000001
 20
621.5
 30
0.0
 11
395.0000000000001
 21
621.5
 31
0.0
  0
LINE
  5
14A
330
1F
100
AcDbEntity
  8
0
100
AcDbLine
 10
395.0000000000001
 20
621.5
 30
0.0
 11
395.0000000000001
 21
623.0
 31
0.0
  0
LINE
  5
14B
330
1F
100
AcDbEntity
  8
0
100
AcDbLine
 10
395.0000000000001
 20
623.0
 30
0.0
 11
400.0000000000001
 21
623.0
 31
0.0
  0
LINE
  5
14C
330
1F
100
AcDbEntity
  8
0
100
AcDbLine
 10
399.9999999999999
 20
177.0
 30
0.0
 11
394.9999999999999
 21
177.0
 31
0.0
  0
LINE
  5
14D
330
1F
100
AcDbEntity
  8
0
100
AcDbLine
 10
394.9999999999999
 20
177.0
 30
0.0
 11
394.9999999999999
 21
178.5
 31
0.0
  0
LINE
  5
14E
330
1F
100
AcDbEntity
  8
0
100
AcDbLine
 10
394.9999999999999
 20
178.5
 30
0.0
 11
389.9999999999999
 21
178.5
 31
0.0
  0
LINE
  5
14F
330
1F
100
AcDbEntity
  8
0
100
AcDbLine
 10
389.9999999999999
 20
178.5
 30
0.0
 11
389.9999999999999
 21
171.5
 31
0.0
  0
LINE
  5
150
330
1F
100
AcDbEntity
  8
0
100
AcDbLine
 10
389.9999999999999
 20
171.5
 30
0.0
 11
394.9999999999999
 21
171.5
 31
0.0
  0
LINE
  5
151
330
1F
100
AcDbEntity
  8
0
100
AcDbLine
 10
394.9999999999999
 20
171.5
 30
0.0
 11
394.9999999999999
 21
173.0
 31
0.0
  0
LINE
  5
152
330
1F
100
AcDbEntity
  8
0
100
AcDbLine
 10
394.9999999999999
 20
173.0
 30
0.0
 11
399.9999999999999
 21
173.0
 31
0.0
  0
LINE
  5
153
330
1F
100
AcDbEntity
  8
0
100
AcDbLine
 10
399.9999999999999
 20
27.0
 30
0.0
 11
394.9999999999999
 21
27.0
 31
0.0
  0
LINE
  5
154
330
1F
100
AcDbEntity
  8
0
100
AcDbLine
 10
394.9999999999999
 20
27.0
 30
0.0
 11
394.9999999999999
 21
28.5
 31
0.0
  0
LINE
  5
155
330
1F
100
AcDbEntity
  8
0
100
AcDbLine
 10
394.9999999999999
 20
28.5
 30
0.0
 11
389.9999999999999
 21
28.5
 31
0.0
  0
LINE
  5
156
330
1F
100
AcDbEntity
  8
0
100
AcDbLine
 10
389.9999999999999
 20
28.5
 30
0.0
 11
389.9999999999999
 21
21.5
 31
0.0
  0
LINE
  5
157
330
1F
100
AcDbEntity
  8
0
100
AcDbLine
 10
389.9999999999999
 20
21.5
 30
0.0
 11
394.9999999999999
 21
21.5
 31
0.0
  0
LINE
  5
158
330
1F
100
AcDbEntity
  8
0
100
AcDbLine
 10
394.9999999999999
 20
21.5
 30
0.0
 11
394.9999999999999
 21
23.0
 31
0.0
  0
LINE
  5
159
330
1F
100
AcDbEntity
  8
0
100
AcDbLine
 10
394.9999999999999
 20
23.0
 30
0.0
 11
399.9999999999999
 21
23.0
 31
0.0
  0
LWPOLYLINE
  5
15A
330
1F
100
AcDbEntity
  8
0
100
AcDbPolyline
 90
        2
 70
     0
 43
0.0
 10
400.0
 20
27.0
 10
400.0
 20
173.0
  0
LWPOLYLINE
  5
15B
330
1F
100
AcDbEntity
  8
0
100
AcDbPolyline
 90
        2
 70
     0
 43
0.0
 10
400.0
 20
177.0
 10
400.0
 20
323.0
  0
LWPOLYLINE
  5
15C
330
1F
100
AcDbEntity
  8
0
100
AcDbPolyline
 90
        2
 70
     0
 43
0.0
 10
400.0
 20
327.0
 10
400.0
 20
473.0
  0
LWPOLYLINE
  5
15D
330
1F
100
AcDbEntity
  8
0
100
AcDbPolyline
 90
        2
 70
     0
 43
0.0
 10
400.0
 20
477.0
 10
400.0
 20
623.0
  0
LWPOLYLINE
  5
15E
330
1F
100
AcDbEntity
  8
0
100
AcDbPolyline
 90
        4
 70
     0
 43
0.0
 10
400.0000000000001
 20
23.0
 10
400.0000000000001
 20
0.0
 10
0.0
 20
0.0
 10
0.0
 20
22.99999999999999
  0
LINE
  5
182
330
1F
100
AcDbEntity
  8
0
100
AcDbLine
 10
198.0
 20
650.0000000000002
 30
0.0
 11
198.0
 21
645.0000000000002
 31
0.0
  0
LINE
  5
183
330
1F
100
AcDbEntity
  8
0
100
AcDbLine
 10
198.0
 20
645.0000000000002
 30
0.0
 11
196.5
 21
645.0000000000002
 31
0.0
  0
LINE
  5
184
330
1F
100
AcDbEntity
  8
0
100
AcDbLine
 10
196.5
 20
645.0000000000002
 30
0.0
 11
196.5
 21
640.0000000000002
 31
0.0
  0
LINE
  5
185
330
1F
100
AcDbEntity
  8
0
100
AcDbLine
 10
196.5
 20
640.0000000000002
 30
0.0
 11
203.5
 21
640.0000000000002
 31
0.0
  0
LINE
  5
186
330
1F
100
AcDbEntity
  8
0
100
AcDbLine
 10
203.5
 20
640.0000000000002
 30
0.0
 11
203.5
 21
645.0000000000002
 31
0.0
  0
LINE
  5
187
330
1F
100
AcDbEntity
  8
0
100
AcDbLine
 10
203.5
 20
645.0000000000002
 30
0.0
 11
202.0
 21
645.0000000000002
 31
0.0
  0
LINE
  5
188
330
1F
100
AcDbEntity
  8
0
100
AcDbLine
 10
202.0
 20
645.0000000000002
 30
0.0
 11
202.0
 21
650.0000000000002
 31
0.0
  0
LINE
  5
190
330
1F
100
AcDbEntity
  8
0
100
AcDbLine
 10
373.0
 20
650.0000000000002
 30
0.0
 11
373.0
 21
645.0000000000002
 31
0.0
  0
LINE
  5
191
330
1F
100
AcDbEntity
  8
0
100
AcDbLine
 10
373.0
 20
645.0000000000002
 30
0.0
 11
371.5
 21
645.0000000000002
 31
0.0
  0
LINE
  5
192
330
1F
100
AcDbEntity
  8
0
100
AcDbLine
 10
371.5
 20
645.0000000000002
 30
0.0
 11
371.5
 21
640.0000000000002
 31
0.0
  0
LINE
  5
193
330
1F
100
AcDbEntity
  8
0
100
AcDbLine
 10
371.5
 20
640.0000000000002
 30
0.0
 11
378.5
 21
640.0000000000002
 31
0.0
  0
LINE
  5
194
330
1F
100
AcDbEntity
  8
0
100
AcDbLine
 10
378.5
 20
640.0000000000002
 30
0.0
 11
378.5
 21
645.0000000000002
 31
0.0
  0
LINE
  5
195
330
1F
100
AcDbEntity
  8
0
100
AcDbLine
 10
378.5
 20
645.0000000000002
 30
0.0
 11
377.0
 21
645.0000000000002
 31
0.0
  0
LINE
  5
196
330
1F
100
AcDbEntity
  8
0
100
AcDbLine
 10
377.0
 20
645.0000000000002
 30
0.0
 11
377.0
 21
650.0000000000002
 31
0.0
  0
LINE
  5
197
330
1F
100
AcDbEntity
  8
0
100
AcDbLine
 10
23.0
 20
650.0000000000002
 30
0.0
 11
23.0
 21
645.0000000000002
 31
0.0
  0
LINE
  5
198
330
1F
100
AcDbEntity
  8
0
100
AcDbLine
 10
23.0
 20
645.0000000000002
 30
0.0
 11
21.5
 21
645.0000000000002
 31
0.0
  0
LINE
  5
199
330
1F
100
AcDbEntity
  8
0
100
AcDbLine
 10
21.5
 20
645.0000000000002
 30
0.0
 11
21.5
 21
640.0000000000002
 31
0.0
  0
LINE
  5
19A
330
1F
100
AcDbEntity
  8
0
100
AcDbLine
 10
21.5
 20
640.0000000000002
 30
0.0
 11
28.5
 21
640.0000000000002
 31
0.0
  0
LINE
  5
19B
330
1F
100
AcDbEntity
  8
0
100
AcDbLine
 10
28.5
 20
640.0000000000002
 30
0.0
 11
28.5
 21
645.0000000000002
 31
0.0
  0
LINE
  5
19C
330
1F
100
AcDbEntity
  8
0
100
AcDbLine
 10
28.5
 20
645.0000000000002
 30
0.0
 11
27.0
 21
645.0000000000002
 31
0.0
  0
LINE
  5
19D
330
1F
100
AcDbEntity
  8
0
100
AcDbLine
 10
27.0
 20
645.0000000000002
 30
0.0
 11
27.0
 21
650.0000000000002
 31
0.0
  0
LWPOLYLINE
  5
19E
330
1F
100
AcDbEntity
  8
0
100
AcDbPolyline
 90
        3
 70
     0
 43
0.0
 10
377.0
 20
650.0000000000001
 10
400.0000000000001
 20
650.0000000000001
 10
400.0000000000001
 20
627.0000000000001
  0
LWPOLYLINE
  5
19F
330
1F
100
AcDbEntity
  8
0
100
AcDbPolyline
 90
        2
 70
     0
 43
0.0
 10
202.0
 20
650.0000000000001
 10
373.0
 20
650.0000000000001
  0
LWPOLYLINE
  5
1A0
330
1F
100
AcDbEntity
  8
0
100
AcDbPolyline
 90
        2
 70
     0
 43
0.0
 10
27.00000000000002
 20
650.0000000000001
 10
198.0
 20
650.0000000000001
  0
CIRCLE
  5
1D2
330
1F
100
AcDbEntity
  8
0
100
AcDbCircle
 10
200.0
 20
113.0
 30
0.0
 40
2.0
  0
CIRCLE
  5
1D4
330
1F
100
AcDbEntity
  8
0
100
AcDbCircle
 10
30.0
 20
113.0
 30
0.0
 40
2.0
  0
CIRCLE
  5
1D5
330
1F
100
AcDbEntity
  8
0
100
AcDbCircle
 10
370.0
 20
113.0
 30
0.0
 40
2.0
  0
LWPOLYLINE
  5
1DA
330
1F
100
AcDbEntity
  8
0
100
AcDbPolyline
 90
        8
 70
     1
 43
0.0
 10
197.5
 20
87.5
 10
197.5
 20
102.5
 42
-0.414213562373095
 10
200.0
 20
105.0
 10
200.0
 20
105.0
 42
-0.414213562373095
 10
202.5
 20
102.5
 10
202.5
 20
87.5
 42
-0.414213562373095
 10
200.0
 20
85.0
 10
200.0
 20
85.0
 42
-0.414213562373095
  0
LWPOLYLINE
  5
1F7
330
1F
100
AcDbEntity
  8
0
100
AcDbPolyline
 90
        8
 70
     1
 43
0.0
 10
207.5
 20
87.5
 10
207.5
 20
102.5
 42
-0.414213562373095
 10
210.0
 20
105.0
 10
210.0
 20
105.0
 42
-0.414213562373095
 10
212.5
 20
102.5
 10
212.5
 20
87.5
 42
-0.414213562373095
 10
210.0
 20
85.0
 10
210.0
 20
85.0
 42
-0.414213562373095
  0
LWPOLYLINE
  5
1F8
330
1F
100
AcDbEntity
  8
0
100
AcDbPolyline
 90
        8
 70
     1
 43
0.0
 10
217.5
 20
87.5
 10
217.5
 20
102.5
 42
-0.414213562373095
 10
220.0
 20
105.0
 10
220.0
 20
105.0
 42
-0.414213562373095
 10
222.5
 20
102.5
 10
222.5
 20
87.5
 42
-0.414213562373095
 10
220.0
 20
85.0
 10
220.0
 20
85.0
 42
-0.414213562373095
  0
LWPOLYLINE
  5
1F9
330
1F
100
AcDbEntity
  8
0
100
AcDbPolyline
 90
        8
 70
     1
 43
0.0
 10
227.5
 20
87.50000000000001
 10
227.5
 20
102.5
 42
-0.414213562373095
 10
230.0
 20
105.0
 10
230.0
 20
105.0
 42
-0.414213562373095
 10
232.5
 20
102.5
 10
232.5
 20
87.50000000000001
 42
-0.414213562373095
 10
230.0
 20
85.00000000000001
 10
230.0
 20
85.00000000000001
 42
-0.414213562373095
  0
LWPOLYLINE
  5
1FA
330
1F
100
AcDbEntity
  8
0
100
AcDbPolyline
 90
        8
 70
     1
 43
0.0
 10
237.5
 20
87.50000000000001
 10
237.5
 20
102.5
 42
-0.414213562373095
 10
240.0
 20
105.0
 10
240.0
 20
105.0
 42
-0.414213562373095
 10
242.5
 20
102.5
 10
242.5
 20
87.50000000000001
 42
-0.414213562373095
 10
240.0
 20
85.00000000000001
 10
240.0
 20
85.00000000000001
 42
-0.414213562373095
  0
LWPOLYLINE
  5
1FB
330
1F
100
AcDbEntity
  8
0
100
AcDbPolyline
 90
        8
 70
     1
 43
0.0
 10
247.5
 20
87.50000000000001
 10
247.5
 20
102.5
 42
-0.414213562373095
 10
250.0
 20
105.0
 10
250.0
 20
105.0
 42
-0.414213562373095
 10
252.5
 20
102.5
 10
252.5
 20
87.50000000000001
 42
-0.414213562373095
 10
250.0
 20
85.00000000000001
 10
250.0
 20
85.00000000000001
 42
-0.414213562373095
  0
LWPOLYLINE
  5
1FC
330
1F
100
AcDbEntity
  8
0
100
AcDbPolyline
 90
        8
 70
     1
 43
0.0
 10
257.5
 20
87.50000000000001
 10
257.5
 20
102.5
 42
-0.414213562373095
 10
260.0
 20
105.0
 10
260.0
 20
105.0
 42
-0.414213562373095
 10
262.5
 20
102.5
 10
262.5
 20
87.50000000000001
 42
-0.414213562373095
 10
260.0
 20
85.00000000000001
 10
260.0
 20
85.00000000000001
 42
-0.414213562373095
  0
LWPOLYLINE
  5
1FD
330
1F
100
AcDbEntity
  8
0
100
AcDbPolyline
 90
        8
 70
     1
 43
0.0
 10
267.5
 20
87.50000000000001
 10
267.5
 20
102.5
 42
-0.414213562373095
 10
270.0
 20
105.0
 10
270.0
 20
105.0
 42
-0.414213562373095
 10
272.5
 20
102.5
 10
272.5
 20
87.50000000000001
 42
-0.414213562373095
 10
270.0
 20
85.00000000000001
 10
270.0
 20
85.00000000000001
 42
-0.414213562373095
  0
LWPOLYLINE
  5
1FE
330
1F
100
AcDbEntity
  8
0
100
AcDbPolyline
 90
        8
 70
     1
 43
0.0
 10
277.5
 20
87.50000000000001
 10
277.5
 20
102.5
 42
-0.414213562373095
 10
280.0
 20
105.0
 10
280.0
 20
105.0
 42
-0.414213562373095
 10
282.5
 20
102.5
 10
282.5
 20
87.50000000000001
 42
-0.414213562373095
 10
280.0
 20
85.00000000000001
 10
280.0
 20
85.00000000000001
 42
-0.414213562373095
  0
LWPOLYLINE
  5
1FF
330
1F
100
AcDbEntity
  8
0
100
AcDbPolyline
 90
        8
 70
     1
 43
0.0
 10
287.5
 20
87.50000000000003
 10
287.5
 20
102.5
 42
-0.414213562373095
 10
290.0
 20
105.0
 10
290.0
 20
105.0
 42
-0.414213562373095
 10
292.5
 20
102.5
 10
292.5
 20
87.50000000000003
 42
-0.414213562373095
 10
290.0
 20
85.00000000000003
 10
290.0
 20
85.00000000000003
 42
-0.414213562373095
  0
LWPOLYLINE
  5
200
330
1F
100
AcDbEntity
  8
0
100
AcDbPolyline
 90
        8
 70
     1
 43
0.0
 10
297.5
 20
87.50000000000003
 10
297.5
 20
102.5
 42
-0.414213562373095
 10
300.0
 20
105.0
 10
300.0
 20
105.0
 42
-0.414213562373095
 10
302.5
 20
102.5
 10
302.5
 20
87.50000000000003
 42
-0.414213562373095
 10
300.0
 20
85.00000000000003
 10
300.0
 20
85.00000000000003
 42
-0.414213562373095
  0
LWPOLYLINE
  5
201
330
1F
100
AcDbEntity
  8
0
100
AcDbPolyline
 90
        8
 70
     1
 43
0.0
 10
307.5
 20
87.50000000000003
 10
307.5
 20
102.5
 42
-0.414213562373095
 10
310.0
 20
105.0
 10
310.0
 20
105.0
 42
-0.414213562373095
 10
312.5
 20
102.5
 10
312.5
 20
87.50000000000003
 42
-0.414213562373095
 10
310.0
 20
85.00000000000003
 10
310.0
 20
85.00000000000003
 42
-0.414213562373095
  0
LWPOLYLINE
  5
202
330
1F
100
AcDbEntity
  8
0
100
AcDbPolyline
 90
        8
 70
     1
 43
0.0
 10
317.5
 20
87.50000000000003
 10
317.5
 20
102.5
 42
-0.414213562373095
 10
320.0
 20
105.0
 10
320.0
 20
105.0
 42
-0.414213562373095
 10
322.5
 20
102.5
 10
322.5
 20
87.50000000000003
 42
-0.414213562373095
 10
320.0
 20
85.00000000000003
 10
320.0
 20
85.00000000000003
 42
-0.414213562373095
  0
LWPOLYLINE
  5
203
330
1F
100
AcDbEntity
  8
0
100
AcDbPolyline
 90
        8
 70
     1
 43
0.0
 10
327.5
 20
87.50000000000003
 10
327.5
 20
102.5
 42
-0.414213562373095
 10
330.0
 20
105.0
 10
330.0
 20
105.0
 42
-0.414213562373095
 10
332.5
 20
102.5
 10
332.5
 20
87.50000000000003
 42
-0.414213562373095
 10
330.0
 20
85.00000000000003
 10
330.0
 20
85.00000000000003
 42
-0.414213562373095
  0
LWPOLYLINE
  5
204
330
1F
100
AcDbEntity
  8
0
100
AcDbPolyline
 90
        8
 70
     1
 43
0.0
 10
337.5
 20
87.50000000000003
 10
337.5
 20
102.5
 42
-0.414213562373095
 10
340.0
 20
105.0
 10
340.0
 20
105.0
 42
-0.414213562373095
 10
342.5
 20
102.5
 10
342.5
 20
87.50000000000003
 42
-0.414213562373095
 10
340.0
 20
85.00000000000003
 10
340.0
 20
85.00000000000003
 42
-0.414213562373095
  0
LWPOLYLINE
  5
205
330
1F
100
AcDbEntity
  8
0
100
AcDbPolyline
 90
        8
 70
     1
 43
0.0
 10
347.5
 20
87.50000000000004
 10
347.5
 20
102.5
 42
-0.414213562373095
 10
350.0
 20
105.0
 10
350.0
 20
105.0
 42
-0.414213562373095
 10
352.5
 20
102.5
 10
352.5
 20
87.50000000000004
 42
-0.414213562373095
 10
350.0
 20
85.00000000000004
 10
350.0
 20
85.00000000000004
 42
-0.414213562373095
  0
LWPOLYLINE
  5
206
330
1F
100
AcDbEntity
  8
0
100
AcDbPolyline
 90
        8
 70
     1
 43
0.0
 10
357.5
 20
87.50000000000004
 10
357.5
 20
102.5
 42
-0.414213562373095
 10
360.0
 20
105.0
 10
360.0
 20
105.0
 42
-0.414213562373095
 10
362.5
 20
102.5
 10
362.5
 20
87.50000000000004
 42
-0.414213562373095
 10
360.0
 20
85.00000000000004
 10
360.0
 20
85.00000000000004
 42
-0.414213562373095
  0
LWPOLYLINE
  5
207
330
1F
100
AcDbEntity
  8
0
100
AcDbPolyline
 90
        8
 70
     1
 43
0.0
 10
367.5
 20
87.50000000000004
 10
367.5
 20
102.5
 42
-0.414213562373095
 10
370.0
 20
105.0
 10
370.0
 20
105.0
 42
-0.414213562373095
 10
372.5
 20
102.5
 10
372.5
 20
87.50000000000004
 42
-0.414213562373095
 10
370.0
 20
85.00000000000004
 10
370.0
 20
85.00000000000004
 42
-0.414213562373095
  0
LWPOLYLINE
  5
208
330
1F
100
AcDbEntity
  8
0
100
AcDbPolyline
 90
        8
 70
     1
 43
0.0
 10
187.5
 20
87.5
 10
187.5
 20
102.5
 42
-0.414213562373095
 10
190.0
 20
105.0
 10
190.0
 20
105.0
 42
-0.414213562373095
 10
192.5
 20
102.5
 10
192.5
 20
87.5
 42
-0.414213562373095
 10
190.0
 20
85.0
 10
190.0
 20
85.0
 42
-0.414213562373095
  0
LWPOLYLINE
  5
209
330
1F
100
AcDbEntity
  8
0
100
AcDbPolyline
 90
        8
 70
     1
 43
0.0
 10
177.5
 20
87.5
 10
177.5
 20
102.5
 42
-0.414213562373095
 10
180.0
 20
105.0
 10
180.0
 20
105.0
 42
-0.414213562373095
 10
182.5
 20
102.5
 10
182.5
 20
87.5
 42
-0.414213562373095
 10
180.0
 20
85.0
 10
180.0
 20
85.0
 42
-0.414213562373095
  0
LWPOLYLINE
  5
20A
330
1F
100
AcDbEntity
  8
0
100
AcDbPolyline
 90
        8
 70
     1
 43
0.0
 10
167.5
 20
87.49999999999999
 10
167.5
 20
102.5
 42
-0.414213562373095
 10
170.0
 20
105.0
 10
170.0
 20
105.0
 42
-0.414213562373095
 10
172.5
 20
102.5
 10
172.5
 20
87.49999999999999
 42
-0.414213562373095
 10
170.0
 20
84.99999999999999
 10
170.0
 20
84.99999999999999
 42
-0.414213562373095
  0
LWPOLYLINE
  5
20B
330
1F
100
AcDbEntity
  8
0
100
AcDbPolyline
 90
        8
 70
     1
 43
0.0
 10
157.5
 20
87.49999999999999
 10
157.5
 20
102.5
 42
-0.414213562373095
 10
160.0
 20
105.0
 10
160.0
 20
105.0
 42
-0.414213562373095
 10
162.5
 20
102.5
 10
162.5
 20
87.49999999999999
 42
-0.414213562373095
 10
160.0
 20
84.99999999999999
 10
160.0
 20
84.99999999999999
 42
-0.414213562373095
  0
LWPOLYLINE
  5
20C
330
1F
100
AcDbEntity
  8
0
100
AcDbPolyline
 90
        8
 70
     1
 43
0.0
 10
147.5
 20
87.49999999999999
 10
147.5
 20
102.5
 42
-0.414213562373095
 10
150.0
 20
105.0
 10
150.0
 20
105.0
 42
-0.414213562373095
 10
152.5
 20
102.5
 10
152.5
 20
87.49999999999999
 42
-0.414213562373095
 10
150.0
 20
84.99999999999999
 10
150.0
 20
84.99999999999999
 42
-0.414213562373095
  0
LWPOLYLINE
  5
20D
330
1F
100
AcDbEntity
  8
0
100
AcDbPolyline
 90
        8
 70
     1
 43
0.0
 10
137.5
 20
87.49999999999999
 10
137.5
 20
102.5
 42
-0.414213562373095
 10
140.0
 20
105.0
 10
140.0
 20
105.0
 42
-0.414213562373095
 10
142.5
 20
102.5
 10
142.5
 20
87.49999999999999
 42
-0.414213562373095
 10
140.0
 20
84.99999999999999
 10
140.0
 20
84.99999999999999
 42
-0.414213562373095
  0
LWPOLYLINE
  5
20E
330
1F
100
AcDbEntity
  8
0
100
AcDbPolyline
 90
        8
 70
     1
 43
0.0
 10
127.5
 20
87.49999999999999
 10
127.5
 20
102.5
 42
-0.414213562373095
 10
130.0
 20
105.0
 10
130.0
 20
105.0
 42
-0.414213562373095
 10
132.5
 20
102.5
 10
132.5
 20
87.49999999999999
 42
-0.414213562373095
 10
130.0
 20
84.99999999999999
 10
130.0
 20
84.99999999999999
 42
-0.414213562373095
  0
LWPOLYLINE
  5
20F
330
1F
100
AcDbEntity
  8
0
100
AcDbPolyline
 90
        8
 70
     1
 43
0.0
 10
117.5
 20
87.49999999999999
 10
117.5
 20
102.5
 42
-0.414213562373095
 10
120.0
 20
105.0
 10
120.0
 20
105.0
 42
-0.414213562373095
 10
122.5
 20
102.5
 10
122.5
 20
87.49999999999999
 42
-0.414213562373095
 10
120.0
 20
84.99999999999999
 10
120.0
 20
84.99999999999999
 42
-0.414213562373095
  0
LWPOLYLINE
  5
210
330
1F
100
AcDbEntity
  8
0
100
AcDbPolyline
 90
        8
 70
     1
 43
0.0
 10
107.5
 20
87.49999999999997
 10
107.5
 20
102.5
 42
-0.414213562373095
 10
110.0
 20
105.0
 10
110.0
 20
105.0
 42
-0.414213562373095
 10
112.5
 20
102.5
 10
112.5
 20
87.49999999999997
 42
-0.414213562373095
 10
110.0
 20
84.99999999999997
 10
110.0
 20
84.99999999999997
 42
-0.414213562373095
  0
LWPOLYLINE
  5
211
330
1F
100
AcDbEntity
  8
0
100
AcDbPolyline
 90
        8
 70
     1
 43
0.0
 10
97.5
 20
87.49999999999997
 10
97.5
 20
102.5
 42
-0.414213562373095
 10
100.0
 20
105.0
 10
100.0
 20
105.0
 42
-0.414213562373095
 10
102.5
 20
102.5
 10
102.5
 20
87.49999999999997
 42
-0.414213562373095
 10
100.0
 20
84.99999999999997
 10
100.0
 20
84.99999999999997
 42
-0.414213562373095
  0
LWPOLYLINE
  5
212
330
1F
100
AcDbEntity
  8
0
100
AcDbPolyline
 90
        8
 70
     1
 43
0.0
 10
87.5
 20
87.49999999999997
 10
87.5
 20
102.5
 42
-0.414213562373095
 10
90.0
 20
105.0
 10
90.0
 20
105.0
 42
-0.414213562373095
 10
92.5
 20
102.5
 10
92.5
 20
87.49999999999997
 42
-0.414213562373095
 10
90.0
 20
84.99999999999997
 10
90.0
 20
84.99999999999997
 42
-0.414213562373095
  0
LWPOLYLINE
  5
213
330
1F
100
AcDbEntity
  8
0
100
AcDbPolyline
 90
        8
 70
     1
 43
0.0
 10
77.5
 20
87.49999999999997
 10
77.5
 20
102.5
 42
-0.414213562373095
 10
80.0
 20
105.0
 10
80.0
 20
105.0
 42
-0.414213562373095
 10
82.5
 20
102.5
 10
82.5
 20
87.49999999999997
 42
-0.414213562373095
 10
80.0
 20
84.99999999999997
 10
80.0
 20
84.99999999999997
 42
-0.414213562373095
  0
LWPOLYLINE
  5
214
330
1F
100
AcDbEntity
  8
0
100
AcDbPolyline
 90
        8
 70
     1
 43
0.0
 10
67.5
 20
87.49999999999997
 10
67.5
 20
102.5
 42
-0.414213562373095
 10
70.0
 20
105.0
 10
70.0
 20
105.0
 42
-0.414213562373095
 10
72.5
 20
102.5
 10
72.5
 20
87.49999999999997
 42
-0.414213562373095
 10
70.0
 20
84.99999999999997
 10
70.0
 20
84.99999999999997
 42
-0.414213562373095
  0
LWPOLYLINE
  5
215
330
1F
100
AcDbEntity
  8
0
100
AcDbPolyline
 90
        8
 70
     1
 43
0.0
 10
57.5
 20
87.49999999999997
 10
57.5
 20
102.5
 42
-0.414213562373095
 10
60.0
 20
105.0
 10
60.0
 20
105.0
 42
-0.414213562373095
 10
62.5
 20
102.5
 10
62.5
 20
87.49999999999997
 42
-0.414213562373095
 10
60.0
 20
84.99999999999997
 10
60.0
 20
84.99999999999997
 42
-0.414213562373095
  0
LWPOLYLINE
  5
216
330
1F
100
AcDbEntity
  8
0
100
AcDbPolyline
 90
        8
 70
     1
 43
0.0
 10
47.5
 20
87.49999999999996
 10
47.5
 20
102.5
 42
-0.414213562373095
 10
50.0
 20
105.0
 10
50.0
 20
105.0
 42
-0.414213562373095
 10
52.5
 20
102.5
 10
52.5
 20
87.49999999999996
 42
-0.414213562373095
 10
50.0
 20
84.99999999999996
 10
50.0
 20
84.99999999999996
 42
-0.414213562373095
  0
LWPOLYLINE
  5
217
330
1F
100
AcDbEntity
  8
0
100
AcDbPolyline
 90
        8
 70
     1
 43
0.0
 10
37.5
 20
87.49999999999996
 10
37.5
 20
102.5
 42
-0.414213562373095
 10
40.0
 20
105.0
 10
40.0
 20
105.0
 42
-0.414213562373095
 10
42.5
 20
102.5
 10
42.5
 20
87.49999999999996
 42
-0.414213562373095
 10
40.0
 20
84.99999999999996
 10
40.0
 20
84.99999999999996
 42
-0.414213562373095
  0
LWPOLYLINE
  5
218
330
1F
100
AcDbEntity
  8
0
100
AcDbPolyline
 90
        8
 70
     1
 43
0.0
 10
27.5
 20
87.49999999999996
 10
27.5
 20
102.5
 42
-0.414213562373095
 10
30.0
 20
105.0
 10
30.0
 20
105.0
 42
-0.414213562373095
 10
32.5
 20
102.5
 10
32.5
 20
87.49999999999996
 42
-0.414213562373095
 10
30.0
 20
84.99999999999996
 10
30.0
 20
84.99999999999996
 42
-0.414213562373095
  0
LWPOLYLINE
  5
221
330
1F
100
AcDbEntity
  8
0
100
AcDbPolyline
 90
        4
 70
     1
 43
0.0
 10
20.0
 20
75.5
 10
20.0
 20
78.5
 10
40.0
 20
78.5
 10
40.0
 20
75.5
  0
LWPOLYLINE
  5
222
330
1F
100
AcDbEntity
  8
0
100
AcDbPolyline
 90
        4
 70
     1
 43
0.0
 10
190.0
 20
75.5
 10
190.0
 20
78.5
 10
210.0
 20
78.5
 10
210.0
 20
75.5
  0
LWPOLYLINE
  5
223
330
1F
100
AcDbEntity
  8
0
100
AcDbPolyline
 90
        4
 70
     1
 43
0.0
 10
360.0
 20
75.5
 10
360.0
 20
78.5
 10
380.0
 20
78.5
 10
380.0
 20
75.5
  0
LWPOLYLINE
  5
224
330
1F
100
AcDbEntity
  8
0
100
AcDbPolyline
 90
        4
 70
     1
 43
0.0
 10
20.0
 20
301.5
 10
20.0
 20
304.5
 10
40.0
 20
304.5
 10
40.0
 20
301.5
  0
LWPOLYLINE
  5
225
330
1F
100
AcDbEntity
  8
0
100
AcDbPolyline
 90
        4
 70
     1
 43
0.0
 10
190.0
 20
301.5
 10
190.0
 20
304.5
 10
210.0
 20
304.5
 10
210.0
 20
301.5
  0
LWPOLYLINE
  5
226
330
1F
100
AcDbEntity
  8
0
100
AcDbPolyline
 90
        4
 70
     1
 43
0.0
 10
360.0
 20
301.5
 10
360.0
 20
304.5
 10
380.0
 20
304.5
 10
380.0
 20
301.5
  0
CIRCLE
  5
227
330
1F
100
AcDbEntity
  8
0
100
AcDbCircle
 10
164.0
 20
164.0
 30
0.0
 40
1.5
  0
CIRCLE
  5
228
330
1F
100
AcDbEntity
  8
0
100
AcDbCircle
 10
236.0
 20
164.0
 30
0.0
 40
1.5
  0
CIRCLE
  5
229
330
1F
100
AcDbEntity
  8
0
100
AcDbCircle
 10
164.0
 20
236.0
 30
0.0
 40
1.5
  0
CIRCLE
  5
22A
330
1F
100
AcDbEntity
  8
0
100
AcDbCircle
 10
236.0
 20
236.0
 30
0.0
 40
1.5
  0
ARC
  5
22B
330
1F
100
AcDbEntity
  8
0
100
AcDbCircle
 10
200.0
 20
200.0
 30
0.0
 40
37.5
100
AcDbArc
 50
274.5885657357858
 51
325.4114342642142
  0
LINE
  5
22D
330
1F
100
AcDbEntity
  8
0
100
AcDbLine
 10
203.0
 20
193.1261364575662
 30
0.0
 11
203.0
 21
186.8375534189118
 31
0.0
  0
LINE
  5
22E
330
1F
100
AcDbEntity
  8
0
100
AcDbLine
 10
197.0
 20
193.1261364575662
 30
0.0
 11
197.0
 21
186.8375534189118
 31
0.0
  0
LINE
  5
239
330
1F
100
AcDbEntity
  8
0
100
AcDbLine
 10
207.4529404498953
 20
199.1611444401364
 30
0.0
 11
212.899013115178
 21
196.0168529208092
 31
0.0
  0
LINE
  5
23A
330
1F
100
AcDbEntity
  8
0
100
AcDbLine
 10
204.4529404498953
 20
193.9649920174298
 30
0.0
 11
209.899013115178
 21
190.8207004981026
 31
0.0
  0
LINE
  5
23B
330
1F
100
AcDbEntity
  8
0
100
AcDbLine
 10
204.4529404498953
 20
206.0350079825702
 30
0.0
 11
209.899013115178
 21
209.1792995018974
 31
0.0
  0
LINE
  5
23C
330
1F
100
AcDbEntity
  8
0
100
AcDbLine
 10
207.4529404498953
 20
200.8388555598636
 30
0.0
 11
212.899013115178
 21
203.9831470791908
 31
0.0
  0
LINE
  5
23D
330
1F
100
AcDbEntity
  8
0
100
AcDbLine
 10
197.0
 20
206.8738635424338
 30
0.0
 11
197.0
 21
213.1624465810882
 31
0.0
  0
LINE
  5
23E
330
1F
100
AcDbEntity
  8
0
100
AcDbLine
 10
203.0
 20
206.8738635424338
 30
0.0
 11
203.0
 21
213.1624465810882
 31
0.0
  0
LINE
  5
23F
330
1F
100
AcDbEntity
  8
0
100
AcDbLine
 10
192.5470595501047
 20
200.8388555598636
 30
0.0
 11
187.100986884822
 21
203.9831470791908
 31
0.0
  0
LINE
  5
240
330
1F
100
AcDbEntity
  8
0
100
AcDbLine
 10
195.5470595501047
 20
206.0350079825702
 30
0.0
 11
190.100986884822
 21
209.1792995018974
 31
0.0
  0
LINE
  5
241
330
1F
100
AcDbEntity
  8
0
100
AcDbLine
 10
195.5470595501046
 20
193.9649920174298
 30
0.0
 11
190.100986884822
 21
190.8207004981026
 31
0.0
  0
LINE
  5
242
330
1F
100
AcDbEntity
  8
0
100
AcDbLine
 10
192.5470595501047
 20
199.1611444401364
 30
0.0
 11
187.100986884822
 21
196.0168529208092
 31
0.0
  0
ARC
  5
252
330
1F
100
AcDbEntity
  8
0
100
AcDbCircle
 10
200.0
 20
200.0
 30
0.0
 40
29.5
100
AcDbArc
 50
275.8367796011632
 51
324.1632203988368
  0
ARC
  5
253
330
1F
100
AcDbEntity
  8
0
100
AcDbCircle
 10
200.0
 20
200.0
 30
0.0
 40
25.5
100
AcDbArc
 50
276.7563270305878
 51
323.2436729694122
  0
ARC
  5
254
330
1F
100
AcDbEntity
  8
0
100
AcDbCircle
 10
200.0
 20
200.0
 30
0.0
 40
17.5
100
AcDbArc
 50
279.8708896061395
 51
320.1291103938605
  0
ARC
  5
255
330
1F
100
AcDbEntity
  8
0
100
AcDbCircle
 10
200.0
 20
200.0
 30
0.0
 40
13.5
100
AcDbArc
 50
282.8395884069041
 51
317.1604115930958
  0
LINE
  5
257
330
1F
100
AcDbEntity
  8
0
100
AcDbLine
 10
226.9153005097323
 20
187.9245456205241
 30
0.0
 11
233.9759526419165
 21
183.8480762113533
 31
0.0
  0
LINE
  5
258
330
1F
100
AcDbEntity
  8
0
100
AcDbLine
 10
223.9153005097323
 20
182.7283931978175
 30
0.0
 11
230.9759526419165
 21
178.6519237886467
 31
0.0
  0
LINE
  5
259
330
1F
100
AcDbEntity
  8
0
100
AcDbLine
 10
216.4310917216391
 20
193.97760638657
 30
0.0
 11
223.4302872758202
 21
189.9366189492527
 31
0.0
  0
LINE
  5
25A
330
1F
100
AcDbEntity
  8
0
100
AcDbLine
 10
213.4310917216391
 20
188.7814539638634
 30
0.0
 11
220.4302872758202
 21
184.7404665265461
 31
0.0
  0
LINE
  5
25B
330
1F
100
AcDbEntity
  8
0
100
AcDbLine
 10
223.9153005097323
 20
217.2716068021825
 30
0.0
 11
230.9759526419164
 21
221.3480762113533
 31
0.0
  0
LINE
  5
25C
330
1F
100
AcDbEntity
  8
0
100
AcDbLine
 10
226.9153005097323
 20
212.0754543794759
 30
0.0
 11
233.9759526419164
 21
216.1519237886467
 31
0.0
  0
LINE
  5
25D
330
1F
100
AcDbEntity
  8
0
100
AcDbLine
 10
203.0
 20
229.3470611816584
 30
0.0
 11
203.0
 21
237.5
 31
0.0
  0
LINE
  5
25E
330
1F
100
AcDbEntity
  8
0
100
AcDbLine
 10
197.0
 20
229.3470611816584
 30
0.0
 11
197.0
 21
237.5
 31
0.0
  0
LINE
  5
25F
330
1F
100
AcDbEntity
  8
0
100
AcDbLine
 10
176.0846994902677
 20
217.2716068021825
 30
0.0
 11
169.0240473580836
 21
221.3480762113533
 31
0.0
  0
LINE
  5
260
330
1F
100
AcDbEntity
  8
0
100
AcDbLine
 10
173.0846994902677
 20
212.0754543794759
 30
0.0
 11
166.0240473580836
 21
216.1519237886467
 31
0.0
  0
LINE
  5
261
330
1F
100
AcDbEntity
  8
0
100
AcDbLine
 10
183.5689082783609
 20
206.02239361343
 30
0.0
 11
176.5697127241798
 21
210.0633810507473
 31
0.0
  0
LINE
  5
262
330
1F
100
AcDbEntity
  8
0
100
AcDbLine
 10
186.5689082783609
 20
211.2185460361367
 30
0.0
 11
179.5697127241798
 21
215.2595334734539
 31
0.0
  0
LINE
  5
263
330
1F
100
AcDbEntity
  8
0
100
AcDbLine
 10
197.0
 20
217.2409396495667
 30
0.0
 11
197.0
 21
225.3229145242012
 31
0.0
  0
LINE
  5
264
330
1F
100
AcDbEntity
  8
0
100
AcDbLine
 10
203.0
 20
217.2409396495667
 30
0.0
 11
203.0
 21
225.3229145242012
 31
0.0
  0
LINE
  5
265
330
1F
100
AcDbEntity
  8
0
100
AcDbLine
 10
173.0846994902677
 20
187.9245456205241
 30
0.0
 11
166.0240473580835
 21
183.8480762113533
 31
0.0
  0
LINE
  5
266
330
1F
100
AcDbEntity
  8
0
100
AcDbLine
 10
176.0846994902677
 20
182.7283931978175
 30
0.0
 11
169.0240473580835
 21
178.6519237886467
 31
0.0
  0
LINE
  5
267
330
1F
100
AcDbEntity
  8
0
100
AcDbLine
 10
186.5689082783609
 20
188.7814539638634
 30
0.0
 11
179.5697127241798
 21
184.7404665265461
 31
0.0
  0
LINE
  5
268
330
1F
100
AcDbEntity
  8
0
100
AcDbLine
 10
183.5689082783609
 20
193.97760638657
 30
0.0
 11
176.5697127241798
 21
189.9366189492527
 31
0.0
  0
LINE
  5
269
330
1F
100
AcDbEntity
  8
0
100
AcDbLine
 10
216.4310917216391
 20
206.02239361343
 30
0.0
 11
223.4302872758202
 21
210.0633810507473
 31
0.0
  0
LINE
  5
26A
330
1F
100
AcDbEntity
  8
0
100
AcDbLine
 10
213.4310917216391
 20
211.2185460361367
 30
0.0
 11
220.4302872758202
 21
215.2595334734539
 31
0.0
  0
LINE
  5
26B
330
1F
100
AcDbEntity
  8
0
100
AcDbLine
 10
197.0
 20
170.6529388183416
 30
0.0
 11
197.0
 21
162.5
 31
0.0
  0
LINE
  5
26C
330
1F
100
AcDbEntity
  8
0
100
AcDbLine
 10
203.0
 20
170.6529388183416
 30
0.0
 11
203.0
 21
162.5
 31
0.0
  0
LINE
  5
26D
330
1F
100
AcDbEntity
  8
0
100
AcDbLine
 10
197.0
 20
182.7590603504333
 30
0.0
 11
197.0
 21
174.6770854757988
 31
0.0
  0
LINE
  5
26E
330
1F
100
AcDbEntity
  8
0
100
AcDbLine
 10
203.0
 20
182.7590603504333
 30
0.0
 11
203.0
 21
174.6770854757988
 31
0.0
  0
ARC
  5
26F
330
1F
100
AcDbEntity
  8
0
100
AcDbCircle
 10
200.0
 20
200.0
 30
0.0
 40
13.5
100
AcDbArc
 50
102.8395884069043
 51
137.1604115930958
  0
ARC
  5
270
330
1F
100
AcDbEntity
  8
0
100
AcDbCircle
 10
200.0
 20
200.0
 30
0.0
 40
17.5
100
AcDbArc
 50
99.87088960613971
 51
140.1291103938604
  0
ARC
  5
271
330
1F
100
AcDbEntity
  8
0
100
AcDbCircle
 10
200.0
 20
200.0
 30
0.0
 40
25.5
100
AcDbArc
 50
96.75632703058793
 51
143.2436729694121
  0
ARC
  5
272
330
1F
100
AcDbEntity
  8
0
100
AcDbCircle
 10
200.0
 20
200.0
 30
0.0
 40
29.5
100
AcDbArc
 50
95.83677960116327
 51
144.1632203988368
  0
ARC
  5
273
330
1F
100
AcDbEntity
  8
0
100
AcDbCircle
 10
200.0
 20
200.0
 30
0.0
 40
37.5
100
AcDbArc
 50
94.58856573578588
 51
145.4114342642141
  0
ARC
  5
275
330
1F
100
AcDbEntity
  8
0
100
AcDbCircle
 10
200.0
 20
200.0
 30
0.0
 40
13.5
100
AcDbArc
 50
42.83958840690422
 51
77.160411593096
  0
ARC
  5
276
330
1F
100
AcDbEntity
  8
0
100
AcDbCircle
 10
200.0
 20
200.0
 30
0.0
 40
17.5
100
AcDbArc
 50
39.87088960613962
 51
80.12911039386056
  0
ARC
  5
277
330
1F
100
AcDbEntity
  8
0
100
AcDbCircle
 10
200.0
 20
200.0
 30
0.0
 40
25.5
100
AcDbArc
 50
36.75632703058789
 51
83.24367296941223
  0
ARC
  5
278
330
1F
100
AcDbEntity
  8
0
100
AcDbCircle
 10
200.0
 20
200.0
 30
0.0
 40
29.5
100
AcDbArc
 50
35.83677960116323
 51
84.16322039883684
  0
ARC
  5
279
330
1F
100
AcDbEntity
  8
0
100
AcDbCircle
 10
200.0
 20
200.0
 30
0.0
 40
37.5
100
AcDbArc
 50
34.58856573578589
 51
85.41143426421422
  0
ARC
  5
27A
330
1F
100
AcDbEntity
  8
0
100
AcDbCircle
 10
200.0
 20
200.0
 30
0.0
 40
37.5
100
AcDbArc
 50
334.5885657357858
 51
25.41143426421419
  0
ARC
  5
27B
330
1F
100
AcDbEntity
  8
0
100
AcDbCircle
 10
200.0
 20
200.0
 30
0.0
 40
29.5
100
AcDbArc
 50
335.8367796011632
 51
24.16322039883675
  0
ARC
  5
27C
330
1F
100
AcDbEntity
  8
0
100
AcDbCircle
 10
200.0
 20
200.0
 30
0.0
 40
25.5
100
AcDbArc
 50
336.7563270305878
 51
23.2436729694122
  0
ARC
  5
27D
330
1F
100
AcDbEntity
  8
0
100
AcDbCircle
 10
200.0
 20
200.0
 30
0.0
 40
17.5
100
AcDbArc
 50
339.8708896061396
 51
20.12911039386057
  0
ARC
  5
27E
330
1F
100
AcDbEntity
  8
0
100
AcDbCircle
 10
200.0
 20
200.0
 30
0.0
 40
13.5
100
AcDbArc
 50
342.8395884069041
 51
17.16041159309587
  0
ARC
  5
27F
330
1F
100
AcDbEntity
  8
0
100
AcDbCircle
 10
200.0
 20
200.0
 30
0.0
 40
37.5
100
AcDbArc
 50
214.5885657357857
 51
265.4114342642142
  0
ARC
  5
280
330
1F
100
AcDbEntity
  8
0
100
AcDbCircle
 10
200.0
 20
200.0
 30
0.0
 40
29.5
100
AcDbArc
 50
215.8367796011632
 51
264.1632203988368
  0
ARC
  5
281
330
1F
100
AcDbEntity
  8
0
100
AcDbCircle
 10
200.0
 20
200.0
 30
0.0
 40
25.5
100
AcDbArc
 50
216.7563270305878
 51
263.2436729694122
  0
ARC
  5
282
330
1F
100
AcDbEntity
  8
0
100
AcDbCircle
 10
200.0
 20
200.0
 30
0.0
 40
17.5
100
AcDbArc
 50
219.8708896061395
 51
260.1291103938605
  0
ARC
  5
283
330
1F
100
AcDbEntity
  8
0
100
AcDbCircle
 10
200.0
 20
200.0
 30
0.0
 40
13.5
100
AcDbArc
 50
222.8395884069041
 51
257.1604115930958
  0
ARC
  5
287
330
1F
100
AcDbEntity
  8
0
100
AcDbCircle
 10
200.0
 20
200.0
 30
0.0
 40
13.5
100
AcDbArc
 50
162.8395884069041
 51
197.1604115930957
  0
ARC
  5
289
330
1F
100
AcDbEntity
  8
0
100
AcDbCircle
 10
200.0
 20
200.0
 30
0.0
 40
17.5
100
AcDbArc
 50
159.8708896061395
 51
200.1291103938604
  0
ARC
  5
28A
330
1F
100
AcDbEntity
  8
0
100
AcDbCircle
 10
200.0
 20
200.0
 30
0.0
 40
25.5
100
AcDbArc
 50
156.7563270305878
 51
203.2436729694122
  0
ARC
  5
28B
330
1F
100
AcDbEntity
  8
0
100
AcDbCircle
 10
200.0
 20
200.0
 30
0.0
 40
29.5
100
AcDbArc
 50
155.8367796011632
 51
204.1632203988368
  0
ARC
  5
28C
330
1F
100
AcDbEntity
  8
0
100
AcDbCircle
 10
200.0
 20
200.0
 30
0.0
 40
37.5
100
AcDbArc
 50
154.5885657357858
 51
205.4114342642142
  0
ARC
  5
28D
330
1F
100
AcDbEntity
  8
0
100
AcDbCircle
 10
200.0
 20
200.0
 30
0.0
 40
7.5
100
AcDbArc
 50
233.5781784782017
 51
246.4218215217981
  0
ARC
  5
28E
330
1F
100
AcDbEntity
  8
0
100
AcDbCircle
 10
200.0
 20
200.0
 30
0.0
 40
7.5
100
AcDbArc
 50
293.5781784782018
 51
306.4218215217982
  0
ARC
  5
28F
330
1F
100
AcDbEntity
  8
0
100
AcDbCircle
 10
200.0
 20
200.0
 30
0.0
 40
7.5
100
AcDbArc
 50
353.5781784782019
 51
6.421821521798144
  0
ARC
  5
290
330
1F
100
AcDbEntity
  8
0
100
AcDbCircle
 10
200.0
 20
200.0
 30
0.0
 40
7.5
100
AcDbArc
 50
53.57817847820184
 51
66.42182152179844
  0
ARC
  5
291
330
1F
100
AcDbEntity
  8
0
100
AcDbCircle
 10
200.0
 20
200.0
 30
0.0
 40
7.5
100
AcDbArc
 50
113.578178478202
 51
126.4218215217982
  0
ARC
  5
292
330
1F
100
AcDbEntity
  8
0
100
AcDbCircle
 10
200.0
 20
200.0
 30
0.0
 40
7.5
100
AcDbArc
 50
173.5781784782019
 51
186.4218215217981
  0
ENDSEC
  0
SECTION
  2
OBJECTS
  0
DICTIONARY
  5
C
330
0
100
AcDbDictionary
281
     1
  3
ACAD_GROUP
350
D
  3
ACAD_IMAGE_VARS
350
6A
  3
ACAD_LAYOUT
350
1A
  3
ACAD_MATERIAL
350
72
  3
ACAD_MLEADERSTYLE
350
3F
  3
ACAD_MLINESTYLE
350
17
  3
ACAD_PLOTSETTINGS
350
19
  3
ACAD_PLOTSTYLENAME
350
E
  3
ACAD_SCALELIST
350
40
  3
ACAD_TABLESTYLE
350
3B
  3
ACAD_VISUALSTYLE
350
2A
  3
AcDbVariableDictionary
350
3D
  3
ACDB_RECOMPOSE_DATA
350
295
  3
APPDATA
350
71
  0
DICTIONARY
  5
D
102
{ACAD_REACTORS
330
C
102
}
330
C
100
AcDbDictionary
281
     1
  0
RASTERVARIABLES
  5
6A
102
{ACAD_REACTORS
330
C
102
}
330
C
100
AcDbRasterVariables
 90
        0
 70
     1
 71
     1
 72
     1
  0
DICTIONARY
  5
1A
102
{ACAD_REACTORS
330
C
102
}
330
C
100
AcDbDictionary
281
     1
  3
Model
350
22
  3
Sheet1
350
1E
  3
Sheet2
350
26
  0
DICTIONARY
  5
72
102
{ACAD_REACTORS
330
C
102
}
330
C
100
AcDbDictionary
281
     1
  3
ByBlock
350
74
  3
ByLayer
350
73
  3
Global
350
75
  0
DICTIONARY
  5
3F
102
{ACAD_REACTORS
330
C
102
}
330
C
100
AcDbDictionary
281
     1
  0
DICTIONARY
  5
17
102
{ACAD_REACTORS
330
C
102
}
330
C
100
AcDbDictionary
281
     1
  3
Standard
350
18
  0
DICTIONARY
  5
19
102
{ACAD_REACTORS
330
C
102
}
330
C
100
AcDbDictionary
281
     1
  0
ACDBDICTIONARYWDFLT
  5
E
102
{ACAD_REACTORS
330
C
102
}
330
C
100
AcDbDictionary
281
     1
  3
Normal
350
F
100
AcDbDictionaryWithDefault
340
F
  0
DICTIONARY
  5
40
102
{ACAD_REACTORS
330
C
102
}
330
C
100
AcDbDictionary
281
     1
  3
A0
350
41
  3
A1
350
42
  3
A2
350
43
  3
A3
350
44
  3
A4
350
45
  3
A5
350
46
  3
A6
350
47
  3
A7
350
48
  3
A8
350
49
  3
A9
350
4A
  3
B0
350
4B
  3
B1
350
4C
  3
B2
350
4D
  3
B3
350
4E
  3
B4
350
4F
  3
B5
350
50
  3
B6
350
51
  3
B7
350
52
  3
B8
350
53
  3
B9
350
54
  3
C0
350
55
  3
C1
350
56
  3
C2
350
57
  3
C3
350
58
  3
C4
350
59
  3
C5
350
5A
  3
C6
350
5B
  3
C7
350
5C
  3
C8
350
5D
  3
C9
350
5E
  3
D0
350
5F
  3
D1
350
60
  3
D2
350
61
  0
DICTIONARY
  5
3B
102
{ACAD_REACTORS
330
C
102
}
330
C
100
AcDbDictionary
281
     1
  3
Standard
350
3C
  0
DICTIONARY
  5
2A
102
{ACAD_REACTORS
330
C
102
}
330
C
100
AcDbDictionary
281
     1
  3
2dWireframe
350
2F
  3
3D Hidden
350
31
  3
3dWireframe
350
30
  3
Basic
350
32
  3
Brighten
350
36
  3
ColorChange
350
3A
  3
Conceptual
350
34
  3
Dim
350
35
  3
Facepattern
350
39
  3
Flat
350
2B
  3
FlatWithEdges
350
2C
  3
Gouraud
350
2D
  3
GouraudWithEdges
350
2E
  3
Linepattern
350
38
  3
Realistic
350
33
  3
Thicken
350
37
  0
DICTIONARY
  5
3D
102
{ACAD_REACTORS
330
C
102
}
330
C
100
AcDbDictionary
281
     1
  3
CANNOSCALE
350
62
  3
CTABLESTYLE
350
3E
  3
LIGHTSINBLOCKS
350
6F
  3
XCLIPFRAME
350
70
  0
XRECORD
  5
295
102
{ACAD_REACTORS
330
C
102
}
330
C
100
AcDbXrecord
280
     1
 90
        1
330
3C
  0
DICTIONARY
  5
71
102
{ACAD_REACTORS
330
C
102
}
330
C
100
AcDbDictionary
281
     1
  0
LAYOUT
  5
22
102
{ACAD_REACTORS
330
1A
102
}
330
1A
100
AcDbPlotSettings
  1

  2
none_device
  4
ISO_A3_(420.00_x_297.00_MM)
  6

 40
7.5
 41
20.0
 42
7.5
 43
20.0
 44
420.0
 45
297.0
 46
20.78282828282826
 47
0.0
 48
0.0
 49
0.0
140
0.0
141
0.0
142
1.0
143
1.155642023346303
 70
  1204
 72
     1
 73
     0
 74
     1
  7
monochrome.ctb
 75
     0
 76
     0
 77
     2
 78
   300
147
0.8653198653198654
148
-134.1869158878504
149
0.0
100
AcDbLayout
  1
Model
 70
     1
 71
     0
 10
0.0
 20
0.0
 11
420.0
 21
297.0
 12
0.0
 22
0.0
 32
0.0
 14
-0.0000000000000738
 24
0.0
 34
0.0
 15
400.0000000000001
 25
650.0000000000002
 35
0.0
146
0.0
 13
0.0
 23
0.0
 33
0.0
 16
1.0
 26
0.0
 36
0.0
 17
0.0
 27
1.0
 37
0.0
 76
     0
330
1F
331
29
  0
LAYOUT
  5
1E
102
{ACAD_REACTORS
330
1A
102
}
330
1A
100
AcDbPlotSettings
  1

  2
none_device
  4

  6

 40
0.0
 41
0.0
 42
0.0
 43
0.0
 44
0.0
 45
0.0
 46
0.0
 47
0.0
 48
0.0
 49
0.0
140
0.0
141
0.0
142
1.0
143
1.0
 70
   688
 72
     0
 73
     0
 74
     5
  7

 75
    16
 76
     0
 77
     2
 78
   300
147
1.0
148
0.0
149
0.0
100
AcDbLayout
  1
Sheet1
 70
     1
 71
     1
 10
0.0
 20
0.0
 11
420.0
 21
297.0
 12
0.0
 22
0.0
 32
0.0
 14
1.000000000000000E+20
 24
1.000000000000000E+20
 34
1.000000000000000E+20
 15
-1.000000000000000E+20
 25
-1.000000000000000E+20
 35
-1.000000000000000E+20
146
0.0
 13
0.0
 23
0.0
 33
0.0
 16
1.0
 26
0.0
 36
0.0
 17
0.0
 27
1.0
 37
0.0
 76
     0
330
1B
  0
LAYOUT
  5
26
102
{ACAD_REACTORS
330
1A
102
}
330
1A
100
AcDbPlotSettings
  1

  2
none_device
  4

  6

 40
0.0
 41
0.0
 42
0.0
 43
0.0
 44
0.0
 45
0.0
 46
0.0
 47
0.0
 48
0.0
 49
0.0
140
0.0
141
0.0
142
1.0
143
1.0
 70
   688
 72
     0
 73
     0
 74
     5
  7

 75
    16
 76
     0
 77
     2
 78
   300
147
1.0
148
0.0
149
0.0
100
AcDbLayout
  1
Sheet2
 70
     1
 71
     2
 10
0.0
 20
0.0
 11
0.0
 21
0.0
 12
0.0
 22
0.0
 32
0.0
 14
0.0
 24
0.0
 34
0.0
 15
0.0
 25
0.0
 35
0.0
146
0.0
 13
0.0
 23
0.0
 33
0.0
 16
1.0
 26
0.0
 36
0.0
 17
0.0
 27
1.0
 37
0.0
 76
     0
330
23
  0
MATERIAL
  5
74
102
{ACAD_REACTORS
330
72
102
}
330
72
100
AcDbMaterial
  1
ByBlock
 72
     1
 94
      127
  0
MATERIAL
  5
73
102
{ACAD_REACTORS
330
72
102
}
330
72
100
AcDbMaterial
  1
ByLayer
 72
     1
 94
      127
  0
MATERIAL
  5
75
102
{ACAD_REACTORS
330
72
102
}
330
72
100
AcDbMaterial
  1
Global
 72
     1
 94
      127
  0
MLINESTYLE
  5
18
102
{ACAD_REACTORS
330
17
102
}
330
17
100
AcDbMlineStyle
  2
Standard
 70
     0
  3

 62
   256
 51
90.0
 52
90.0
 71
     2
 49
0.5
 62
   256
  6
BYLAYER
 49
-0.5
 62
   256
  6
BYLAYER
  0
ACDBPLACEHOLDER
  5
F
102
{ACAD_REACTORS
330
E
102
}
330
E
  0
SCALE
  5
41
102
{ACAD_REACTORS
330
40
102
}
330
40
100
AcDbScale
 70
     0
300
1:1
140
1.0
141
1.0
290
     1
  0
SCALE
  5
42
102
{ACAD_REACTORS
330
40
102
}
330
40
100
AcDbScale
 70
     0
300
1:2
140
1.0
141
2.0
290
     0
  0
SCALE
  5
43
102
{ACAD_REACTORS
330
40
102
}
330
40
100
AcDbScale
 70
     0
300
1:4
140
1.0
141
4.0
290
     0
  0
SCALE
  5
44
102
{ACAD_REACTORS
330
40
102
}
330
40
100
AcDbScale
 70
     0
300
1:5
140
1.0
141
5.0
290
     0
  0
SCALE
  5
45
102
{ACAD_REACTORS
330
40
102
}
330
40
100
AcDbScale
 70
     0
300
1:8
140
1.0
141
8.0
290
     0
  0
SCALE
  5
46
102
{ACAD_REACTORS
330
40
102
}
330
40
100
AcDbScale
 70
     0
300
1:10
140
1.0
141
10.0
290
     0
  0
SCALE
  5
47
102
{ACAD_REACTORS
330
40
102
}
330
40
100
AcDbScale
 70
     0
300
1:16
140
1.0
141
16.0
290
     0
  0
SCALE
  5
48
102
{ACAD_REACTORS
330
40
102
}
330
40
100
AcDbScale
 70
     0
300
1:20
140
1.0
141
20.0
290
     0
  0
SCALE
  5
49
102
{ACAD_REACTORS
330
40
102
}
330
40
100
AcDbScale
 70
     0
300
1:30
140
1.0
141
30.0
290
     0
  0
SCALE
  5
4A
102
{ACAD_REACTORS
330
40
102
}
330
40
100
AcDbScale
 70
     0
300
1:40
140
1.0
141
40.0
290
     0
  0
SCALE
  5
4B
102
{ACAD_REACTORS
330
40
102
}
330
40
100
AcDbScale
 70
     0
300
1:50
140
1.0
141
50.0
290
     0
  0
SCALE
  5
4C
102
{ACAD_REACTORS
330
40
102
}
330
40
100
AcDbScale
 70
     0
300
1:100
140
1.0
141
100.0
290
     0
  0
SCALE
  5
4D
102
{ACAD_REACTORS
330
40
102
}
330
40
100
AcDbScale
 70
     0
300
2:1
140
2.0
141
1.0
290
     0
  0
SCALE
  5
4E
102
{ACAD_REACTORS
330
40
102
}
330
40
100
AcDbScale
 70
     0
300
4:1
140
4.0
141
1.0
290
     0
  0
SCALE
  5
4F
102
{ACAD_REACTORS
330
40
102
}
330
40
100
AcDbScale
 70
     0
300
8:1
140
8.0
141
1.0
290
     0
  0
SCALE
  5
50
102
{ACAD_REACTORS
330
40
102
}
330
40
100
AcDbScale
 70
     0
300
10:1
140
10.0
141
1.0
290
     0
  0
SCALE
  5
51
102
{ACAD_REACTORS
330
40
102
}
330
40
100
AcDbScale
 70
     0
300
100:1
140
100.0
141
1.0
290
     0
  0
SCALE
  5
52
102
{ACAD_REACTORS
330
40
102
}
330
40
100
AcDbScale
 70
     0
300
1/128" = 1'-0"
140
0.0078125
141
12.0
290
     0
  0
SCALE
  5
53
102
{ACAD_REACTORS
330
40
102
}
330
40
100
AcDbScale
 70
     0
300
1/64" = 1'-0"
140
0.015625
141
12.0
290
     0
  0
SCALE
  5
54
102
{ACAD_REACTORS
330
40
102
}
330
40
100
AcDbScale
 70
     0
300
1/32" = 1'-0"
140
0.03125
141
12.0
290
     0
  0
SCALE
  5
55
102
{ACAD_REACTORS
330
40
102
}
330
40
100
AcDbScale
 70
     0
300
1/16" = 1'-0"
140
0.0625
141
12.0
290
     0
  0
SCALE
  5
56
102
{ACAD_REACTORS
330
40
102
}
330
40
100
AcDbScale
 70
     0
300
3/32" = 1'-0"
140
0.09375
141
12.0
290
     0
  0
SCALE
  5
57
102
{ACAD_REACTORS
330
40
102
}
330
40
100
AcDbScale
 70
     0
300
1/8" = 1'-0"
140
0.125
141
12.0
290
     0
  0
SCALE
  5
58
102
{ACAD_REACTORS
330
40
102
}
330
40
100
AcDbScale
 70
     0
300
3/16" = 1'-0"
140
0.1875
141
12.0
290
     0
  0
SCALE
  5
59
102
{ACAD_REACTORS
330
40
102
}
330
40
100
AcDbScale
 70
     0
300
1/4" = 1'-0"
140
0.25
141
12.0
290
     0
  0
SCALE
  5
5A
102
{ACAD_REACTORS
330
40
102
}
330
40
100
AcDbScale
 70
     0
300
3/8" = 1'-0"
140
0.375
141
12.0
290
     0
  0
SCALE
  5
5B
102
{ACAD_REACTORS
330
40
102
}
330
40
100
AcDbScale
 70
     0
300
1/2" = 1'-0"
140
0.5
141
12.0
290
     0
  0
SCALE
  5
5C
102
{ACAD_REACTORS
330
40
102
}
330
40
100
AcDbScale
 70
     0
300
3/4" = 1'-0"
140
0.75
141
12.0
290
     0
  0
SCALE
  5
5D
102
{ACAD_REACTORS
330
40
102
}
330
40
100
AcDbScale
 70
     0
300
1" = 1'-0"
140
1.0
141
12.0
290
     0
  0
SCALE
  5
5E
102
{ACAD_REACTORS
330
40
102
}
330
40
100
AcDbScale
 70
     0
300
1-1/2" = 1'-0"
140
1.5
141
12.0
290
     0
  0
SCALE
  5
5F
102
{ACAD_REACTORS
330
40
102
}
330
40
100
AcDbScale
 70
     0
300
3" = 1'-0"
140
3.0
141
12.0
290
     0
  0
SCALE
  5
60
102
{ACAD_REACTORS
330
40
102
}
330
40
100
AcDbScale
 70
     0
300
6" = 1'-0"
140
6.0
141
12.0
290
     0
  0
SCALE
  5
61
102
{ACAD_REACTORS
330
40
102
}
330
40
100
AcDbScale
 70
     0
300
1'-0" = 1'-0"
140
12.0
141
12.0
290
     0
  0
TABLESTYLE
  5
3C
102
{ACAD_REACTORS
330
3B
102
}
102
{ACAD_XDICTIONARY
360
293
102
}
330
3B
100
AcDbTableStyle
  3
Standard
 70
     0
 71
     0
 40
0.06
 41
0.06
280
     0
281
     0
  7
Standard
140
4.5
170
     2
 62
     0
 63
   257
283
     0
 90
      512
 91
        0
  1

274
    -2
284
     1
 64
     0
275
    -2
285
     1
 65
     0
276
    -2
286
     1
 66
     0
277
    -2
287
     1
 67
     0
278
    -2
288
     1
 68
     0
279
    -2
289
     1
 69
     0
  7
Standard
140
6.0
170
     5
 62
     0
 63
   257
283
     0
 90
      512
 91
        0
  1

274
    -2
284
     1
 64
     0
275
    -2
285
     1
 65
     0
276
    -2
286
     1
 66
     0
277
    -2
287
     1
 67
     0
278
    -2
288
     1
 68
     0
279
    -2
289
     1
 69
     0
  7
Standard
140
4.5
170
     5
 62
     0
 63
   257
283
     0
 90
      512
 91
        0
  1

274
    -2
284
     1
 64
     0
275
    -2
285
     1
 65
     0
276
    -2
286
     1
 66
     0
277
    -2
287
     1
 67
     0
278
    -2
288
     1
 68
     0
279
    -2
289
     1
 69
     0
  0
VISUALSTYLE
  5
2F
102
{ACAD_REACTORS
330
2A
102
}
330
2A
100
AcDbVisualStyle
  2
2dWireframe
 70
     4
177
     2
291
     0
 71
     0
176
     1
 72
     2
176
     1
 73
     0
176
     1
 90
        0
176
     1
 40
-0.6
176
     1
 41
-30.0
176
     1
 62
     5
 63
     7
421
 16777215
176
     1
 74
     1
176
     1
 91
        4
176
     1
 64
     7
176
     1
 65
   257
176
     1
 75
     1
176
     1
175
     1
176
     1
 42
1.0
176
     1
 92
        0
176
     1
 66
   257
176
     1
 43
1.0
176
     1
 76
     1
176
     1
 77
     6
176
     1
 78
     2
176
     1
 67
     7
176
     1
 79
     5
176
     1
170
     0
176
     1
171
     0
176
     1
290
     0
176
     1
 93
        1
176
     1
 44
0.0
176
     1
173
     0
176
     1
  0
VISUALSTYLE
  5
31
102
{ACAD_REACTORS
330
2A
102
}
330
2A
100
AcDbVisualStyle
  2
3D Hidden
 70
     6
177
     2
291
     0
 71
     1
176
     1
 72
     2
176
     1
 73
     2
176
     1
 90
        0
176
     1
 40
-0.6
176
     1
 41
-30.0
176
     1
 62
     5
 63
     7
421
 16777215
176
     1
 74
     2
176
     1
 91
        2
176
     1
 64
     7
176
     1
 65
   257
176
     1
 75
     2
176
     1
175
     1
176
     1
 42
40.0
176
     1
 92
        0
176
     1
 66
   257
176
     1
 43
1.0
176
     1
 76
     1
176
     1
 77
     6
176
     1
 78
     2
176
     1
 67
     7
176
     1
 79
     3
176
     1
170
     0
176
     1
171
     0
176
     1
290
     0
176
     1
 93
        1
176
     1
 44
0.0
176
     1
173
     0
176
     1
  0
VISUALSTYLE
  5
30
102
{ACAD_REACTORS
330
2A
102
}
330
2A
100
AcDbVisualStyle
  2
3dWireframe
 70
     5
177
     2
291
     0
 71
     0
176
     1
 72
     2
176
     1
 73
     0
176
     1
 90
        0
176
     1
 40
-0.6
176
     1
 41
-30.0
176
     1
 62
     5
 63
     7
421
 16777215
176
     1
 74
     1
176
     1
 91
        4
176
     1
 64
     7
176
     1
 65
   257
176
     1
 75
     1
176
     1
175
     1
176
     1
 42
1.0
176
     1
 92
        0
176
     1
 66
   257
176
     1
 43
1.0
176
     1
 76
     1
176
     1
 77
     6
176
     1
 78
     2
176
     1
 67
     7
176
     1
 79
     5
176
     1
170
     0
176
     1
171
     0
176
     1
290
     0
176
     1
 93
        1
176
     1
 44
0.0
176
     1
173
     0
176
     1
  0
VISUALSTYLE
  5
32
102
{ACAD_REACTORS
330
2A
102
}
330
2A
100
AcDbVisualStyle
  2
Basic
 70
     7
177
     2
291
     1
 71
     1
176
     1
 72
     0
176
     1
 73
     1
176
     1
 90
        0
176
     1
 40
-0.6
176
     1
 41
-30.0
176
     1
 62
     5
 63
     7
421
 16777215
176
     1
 74
     0
176
     1
 91
        4
176
     1
 64
     7
176
     1
 65
   257
176
     1
 75
     1
176
     1
175
     1
176
     1
 42
1.0
176
     1
 92
        8
176
     1
 66
     7
176
     1
 43
1.0
176
     1
 76
     1
176
     1
 77
     6
176
     1
 78
     2
176
     1
 67
     7
176
     1
 79
     5
176
     1
170
     0
176
     1
171
     0
176
     1
290
     0
176
     1
 93
        1
176
     1
 44
0.0
176
     1
173
     0
176
     1
  0
VISUALSTYLE
  5
36
102
{ACAD_REACTORS
330
2A
102
}
330
2A
100
AcDbVisualStyle
  2
Brighten
 70
    12
177
     2
291
     1
 71
     2
176
     1
 72
     2
176
     1
 73
     0
176
     1
 90
        0
176
     1
 40
-0.6
176
     1
 41
-30.0
176
     1
 62
     5
 63
     7
421
 16777215
176
     1
 74
     1
176
     1
 91
        4
176
     1
 64
     7
176
     1
 65
   257
176
     1
 75
     1
176
     1
175
     1
176
     1
 42
1.0
176
     1
 92
        8
176
     1
 66
     7
176
     1
 43
1.0
176
     1
 76
     1
176
     1
 77
     6
176
     1
 78
     2
176
     1
 67
     7
176
     1
 79
     5
176
     1
170
     0
176
     1
171
     0
176
     1
290
     0
176
     1
 93
        1
176
     1
 44
50.0
176
     1
173
     0
176
     1
  0
VISUALSTYLE
  5
3A
102
{ACAD_REACTORS
330
2A
102
}
330
2A
100
AcDbVisualStyle
  2
ColorChange
 70
    16
177
     2
291
     1
 71
     2
176
     1
 72
     2
176
     1
 73
     3
176
     1
 90
        0
176
     1
 40
-0.6
176
     1
 41
-30.0
176
     1
 62
     5
 63
     8
421
  8421504
176
     1
 74
     1
176
     1
 91
        4
176
     1
 64
     7
176
     1
 65
   257
176
     1
 75
     1
176
     1
175
     1
176
     1
 42
1.0
176
     1
 92
        8
176
     1
 66
     8
424
  8421504
176
     1
 43
1.0
176
     1
 76
     1
176
     1
 77
     6
176
     1
 78
     2
176
     1
 67
     7
176
     1
 79
     5
176
     1
170
     0
176
     1
171
     0
176
     1
290
     0
176
     1
 93
        1
176
     1
 44
0.0
176
     1
173
     0
176
     1
  0
VISUALSTYLE
  5
34
102
{ACAD_REACTORS
330
2A
102
}
330
2A
100
AcDbVisualStyle
  2
Conceptual
 70
     9
177
     2
291
     0
 71
     3
176
     1
 72
     2
176
     1
 73
     0
176
     1
 90
        0
176
     1
 40
-0.6
176
     1
 41
-30.0
176
     1
 62
     5
 63
     7
421
 16777215
176
     1
 74
     2
176
     1
 91
        2
176
     1
 64
     7
176
     1
 65
   257
176
     1
 75
     1
176
     1
175
     1
176
     1
 42
40.0
176
     1
 92
        8
176
     1
 66
     7
176
     1
 43
1.0
176
     1
 76
     1
176
     1
 77
     6
176
     1
 78
     2
176
     1
 67
     7
176
     1
 79
     3
176
     1
170
     0
176
     1
171
     0
176
     1
290
     0
176
     1
 93
        1
176
     1
 44
0.0
176
     1
173
     0
176
     1
  0
VISUALSTYLE
  5
35
102
{ACAD_REACTORS
330
2A
102
}
330
2A
100
AcDbVisualStyle
  2
Dim
 70
    11
177
     2
291
     1
 71
     2
176
     1
 72
     2
176
     1
 73
     0
176
     1
 90
        0
176
     1
 40
-0.6
176
     1
 41
-30.0
176
     1
 62
     5
 63
     7
421
 16777215
176
     1
 74
     1
176
     1
 91
        4
176
     1
 64
     7
176
     1
 65
   257
176
     1
 75
     1
176
     1
175
     1
176
     1
 42
1.0
176
     1
 92
        8
176
     1
 66
     7
176
     1
 43
1.0
176
     1
 76
     1
176
     1
 77
     6
176
     1
 78
     2
176
     1
 67
     7
176
     1
 79
     5
176
     1
170
     0
176
     1
171
     0
176
     1
290
     0
176
     1
 93
        1
176
     1
 44
-50.0
176
     1
173
     0
176
     1
  0
VISUALSTYLE
  5
39
102
{ACAD_REACTORS
330
2A
102
}
330
2A
100
AcDbVisualStyle
  2
Facepattern
 70
    15
177
     2
291
     1
 71
     2
176
     1
 72
     2
176
     1
 73
     0
176
     1
 90
        0
176
     1
 40
-0.6
176
     1
 41
-30.0
176
     1
 62
     5
 63
     7
421
 16777215
176
     1
 74
     1
176
     1
 91
        4
176
     1
 64
     7
176
     1
 65
   257
176
     1
 75
     1
176
     1
175
     1
176
     1
 42
1.0
176
     1
 92
        8
176
     1
 66
     7
176
     1
 43
1.0
176
     1
 76
     1
176
     1
 77
     6
176
     1
 78
     2
176
     1
 67
     7
176
     1
 79
     5
176
     1
170
     0
176
     1
171
     0
176
     1
290
     0
176
     1
 93
        1
176
     1
 44
0.0
176
     1
173
     0
176
     1
  0
VISUALSTYLE
  5
2B
102
{ACAD_REACTORS
330
2A
102
}
330
2A
100
AcDbVisualStyle
  2
Flat
 70
     0
177
     2
291
     1
 71
     2
176
     1
 72
     1
176
     1
 73
     1
176
     1
 90
        2
176
     1
 40
-0.6
176
     1
 41
30.0
176
     1
 62
     5
 63
     7
421
 16777215
176
     1
 74
     0
176
     1
 91
        4
176
     1
 64
     7
176
     1
 65
   257
176
     1
 75
     1
176
     1
175
     1
176
     1
 42
1.0
176
     1
 92
        8
176
     1
 66
     7
176
     1
 43
1.0
176
     1
 76
     1
176
     1
 77
     6
176
     1
 78
     2
176
     1
 67
     7
176
     1
 79
     5
176
     1
170
     0
176
     1
171
     0
176
     1
290
     0
176
     1
 93
       13
176
     1
 44
0.0
176
     1
173
     0
176
     1
  0
VISUALSTYLE
  5
2C
102
{ACAD_REACTORS
330
2A
102
}
330
2A
100
AcDbVisualStyle
  2
FlatWithEdges
 70
     1
177
     2
291
     1
 71
     2
176
     1
 72
     1
176
     1
 73
     1
176
     1
 90
        2
176
     1
 40
-0.6
176
     1
 41
30.0
176
     1
 62
     5
 63
     7
421
 16777215
176
     1
 74
     1
176
     1
 91
        4
176
     1
 64
     7
176
     1
 65
   257
176
     1
 75
     1
176
     1
175
     1
176
     1
 42
1.0
176
     1
 92
        0
176
     1
 66
   257
176
     1
 43
1.0
176
     1
 76
     1
176
     1
 77
     6
176
     1
 78
     2
176
     1
 67
     7
176
     1
 79
     5
176
     1
170
     0
176
     1
171
     0
176
     1
290
     0
176
     1
 93
       13
176
     1
 44
0.0
176
     1
173
     0
176
     1
  0
VISUALSTYLE
  5
2D
102
{ACAD_REACTORS
330
2A
102
}
330
2A
100
AcDbVisualStyle
  2
Gouraud
 70
     2
177
     2
291
     1
 71
     2
176
     1
 72
     2
176
     1
 73
     1
176
     1
 90
        2
176
     1
 40
-0.6
176
     1
 41
30.0
176
     1
 62
     5
 63
     7
421
 16777215
176
     1
 74
     0
176
     1
 91
        4
176
     1
 64
     7
176
     1
 65
   257
176
     1
 75
     1
176
     1
175
     1
176
     1
 42
1.0
176
     1
 92
        0
176
     1
 66
     7
176
     1
 43
1.0
176
     1
 76
     1
176
     1
 77
     6
176
     1
 78
     2
176
     1
 67
     7
176
     1
 79
     5
176
     1
170
     0
176
     1
171
     0
176
     1
290
     0
176
     1
 93
       13
176
     1
 44
0.0
176
     1
173
     0
176
     1
  0
VISUALSTYLE
  5
2E
102
{ACAD_REACTORS
330
2A
102
}
330
2A
100
AcDbVisualStyle
  2
GouraudWithEdges
 70
     3
177
     2
291
     1
 71
     2
176
     1
 72
     2
176
     1
 73
     1
176
     1
 90
        2
176
     1
 40
-0.6
176
     1
 41
30.0
176
     1
 62
     5
 63
     7
421
 16777215
176
     1
 74
     1
176
     1
 91
        4
176
     1
 64
     7
176
     1
 65
   257
176
     1
 75
     1
176
     1
175
     1
176
     1
 42
1.0
176
     1
 92
        0
176
     1
 66
   257
176
     1
 43
1.0
176
     1
 76
     1
176
     1
 77
     6
176
     1
 78
     2
176
     1
 67
     7
176
     1
 79
     5
176
     1
170
     0
176
     1
171
     0
176
     1
290
     0
176
     1
 93
       13
176
     1
 44
0.0
176
     1
173
     0
176
     1
  0
VISUALSTYLE
  5
38
102
{ACAD_REACTORS
330
2A
102
}
330
2A
100
AcDbVisualStyle
  2
Linepattern
 70
    14
177
     2
291
     1
 71
     2
176
     1
 72
     2
176
     1
 73
     0
176
     1
 90
        0
176
     1
 40
-0.6
176
     1
 41
-30.0
176
     1
 62
     5
 63
     7
421
 16777215
176
     1
 74
     1
176
     1
 91
        4
176
     1
 64
     7
176
     1
 65
   257
176
     1
 75
     7
176
     1
175
     7
176
     1
 42
1.0
176
     1
 92
        8
176
     1
 66
     7
176
     1
 43
1.0
176
     1
 76
     1
176
     1
 77
     6
176
     1
 78
     2
176
     1
 67
     7
176
     1
 79
     5
176
     1
170
     0
176
     1
171
     0
176
     1
290
     0
176
     1
 93
        1
176
     1
 44
0.0
176
     1
173
     0
176
     1
  0
VISUALSTYLE
  5
33
102
{ACAD_REACTORS
330
2A
102
}
330
2A
100
AcDbVisualStyle
  2
Realistic
 70
     8
177
     2
291
     0
 71
     2
176
     1
 72
     2
176
     1
 73
     0
176
     1
 90
        0
176
     1
 40
-0.6
176
     1
 41
-30.0
176
     1
 62
     5
 63
     7
421
 16777215
176
     1
 74
     1
176
     1
 91
        0
176
     1
 64
     7
176
     1
 65
   257
176
     1
 75
     1
176
     1
175
     1
176
     1
 42
1.0
176
     1
 92
        8
176
     1
 66
     8
424
  7895160
176
     1
 43
1.0
176
     1
 76
     1
176
     1
 77
     6
176
     1
 78
     2
176
     1
 67
     7
176
     1
 79
     5
176
     1
170
     0
176
     1
171
     0
176
     1
290
     0
176
     1
 93
       13
176
     1
 44
0.0
176
     1
173
     0
176
     1
  0
VISUALSTYLE
  5
37
102
{ACAD_REACTORS
330
2A
102
}
330
2A
100
AcDbVisualStyle
  2
Thicken
 70
    13
177
     2
291
     1
 71
     2
176
     1
 72
     2
176
     1
 73
     0
176
     1
 90
        0
176
     1
 40
-0.6
176
     1
 41
-30.0
176
     1
 62
     5
 63
     7
421
 16777215
176
     1
 74
     1
176
     1
 91
        4
176
     1
 64
     7
176
     1
 65
   257
176
     1
 75
     1
176
     1
175
     1
176
     1
 42
1.0
176
     1
 92
       12
176
     1
 66
     7
176
     1
 43
1.0
176
     1
 76
     1
176
     1
 77
     6
176
     1
 78
     2
176
     1
 67
     7
176
     1
 79
     5
176
     1
170
     0
176
     1
171
     0
176
     1
290
     0
176
     1
 93
        1
176
     1
 44
0.0
176
     1
173
     0
176
     1
  0
DICTIONARYVAR
  5
62
102
{ACAD_REACTORS
330
3D
102
}
330
3D
100
DictionaryVariables
280
     0
  1
1:1
  0
DICTIONARYVAR
  5
3E
102
{ACAD_REACTORS
330
3D
102
}
330
3D
100
DictionaryVariables
280
     0
  1
Standard
  0
DICTIONARYVAR
  5
6F
102
{ACAD_REACTORS
330
3D
102
}
330
3D
100
DictionaryVariables
280
     0
  1
0
  0
DICTIONARYVAR
  5
70
102
{ACAD_REACTORS
330
3D
102
}
330
3D
100
DictionaryVariables
280
     0
  1
0
  0
DICTIONARY
  5
293
330
3C
100
AcDbDictionary
280
     1
281
     1
  3
ACAD_ROUNDTRIP_2008_TABLESTYLE_CELLSTYLEMAP
360
294
  0
CELLSTYLEMAP
  5
294
102
{ACAD_REACTORS
330
293
102
}
330
293
100
AcDbCellStyleMap
 90
        3
300
CELLSTYLE
  1
TABLEFORMAT_BEGIN
 90
        5
170
     1
 91
        0
 92
    32768
 62
   257
 93
        1
300
CONTENTFORMAT
  1
CONTENTFORMAT_BEGIN
 90
        0
 91
        0
 92
      512
 93
        0
300

 40
0.0
140
1.0
 94
        5
 62
     0
340
11
144
6.0
309
CONTENTFORMAT_END
171
     1
301
MARGIN
  1
CELLMARGIN_BEGIN
 40
1.5
 40
1.5
 40
1.5
 40
1.5
 40
0.18
 40
0.18
309
CELLMARGIN_END
 94
        6
 95
        1
302
GRIDFORMAT
  1
GRIDFORMAT_BEGIN
 90
        0
 91
        1
 62
     0
 92
       -2
340
0
 93
        0
 40
0.045
309
GRIDFORMAT_END
 95
        2
302
GRIDFORMAT
  1
GRIDFORMAT_BEGIN
 90
        0
 91
        1
 62
     0
 92
       -2
340
0
 93
        0
 40
0.045
309
GRIDFORMAT_END
 95
        4
302
GRIDFORMAT
  1
GRIDFORMAT_BEGIN
 90
        0
 91
        1
 62
     0
 92
       -2
340
0
 93
        0
 40
0.045
309
GRIDFORMAT_END
 95
        8
302
GRIDFORMAT
  1
GRIDFORMAT_BEGIN
 90
        0
 91
        1
 62
     0
 92
       -2
340
0
 93
        0
 40
0.045
309
GRIDFORMAT_END
 95
       16
302
GRIDFORMAT
  1
GRIDFORMAT_BEGIN
 90
        0
 91
        1
 62
     0
 92
       -2
340
0
 93
        0
 40
0.045
309
GRIDFORMAT_END
 95
       32
302
GRIDFORMAT
  1
GRIDFORMAT_BEGIN
 90
        0
 91
        1
 62
     0
 92
       -2
340
0
 93
        0
 40
0.045
309
GRIDFORMAT_END
309
TABLEFORMAT_END
  1
CELLSTYLE_BEGIN
 90
        1
 91
        1
300
_TITLE
309
CELLSTYLE_END
300
CELLSTYLE
  1
TABLEFORMAT_BEGIN
 90
        5
170
     1
 91
        0
 92
        0
 62
   257
 93
        1
300
CONTENTFORMAT
  1
CONTENTFORMAT_BEGIN
 90
        0
 91
        0
 92
      512
 93
        0
300

 40
0.0
140
1.0
 94
        5
 62
     0
340
11
144
4.5
309
CONTENTFORMAT_END
171
     1
301
MARGIN
  1
CELLMARGIN_BEGIN
 40
1.5
 40
1.5
 40
1.5
 40
1.5
 40
0.18
 40
0.18
309
CELLMARGIN_END
 94
        6
 95
        1
302
GRIDFORMAT
  1
GRIDFORMAT_BEGIN
 90
        0
 91
        1
 62
     0
 92
       -2
340
0
 93
        0
 40
0.045
309
GRIDFORMAT_END
 95
        2
302
GRIDFORMAT
  1
GRIDFORMAT_BEGIN
 90
        0
 91
        1
 62
     0
 92
       -2
340
0
 93
        0
 40
0.045
309
GRIDFORMAT_END
 95
        4
302
GRIDFORMAT
  1
GRIDFORMAT_BEGIN
 90
        0
 91
        1
 62
     0
 92
       -2
340
0
 93
        0
 40
0.045
309
GRIDFORMAT_END
 95
        8
302
GRIDFORMAT
  1
GRIDFORMAT_BEGIN
 90
        0
 91
        1
 62
     0
 92
       -2
340
0
 93
        0
 40
0.045
309
GRIDFORMAT_END
 95
       16
302
GRIDFORMAT
  1
GRIDFORMAT_BEGIN
 90
        0
 91
        1
 62
     0
 92
       -2
340
0
 93
        0
 40
0.045
309
GRIDFORMAT_END
 95
       32
302
GRIDFORMAT
  1
GRIDFORMAT_BEGIN
 90
        0
 91
        1
 62
     0
 92
       -2
340
0
 93
        0
 40
0.045
309
GRIDFORMAT_END
309
TABLEFORMAT_END
  1
CELLSTYLE_BEGIN
 90
        2
 91
        1
300
_HEADER
309
CELLSTYLE_END
300
CELLSTYLE
  1
TABLEFORMAT_BEGIN
 90
        5
170
     1
 91
        0
 92
        0
 62
   257
 93
        1
300
CONTENTFORMAT
  1
CONTENTFORMAT_BEGIN
 90
        0
 91
        0
 92
      512
 93
        0
300

 40
0.0
140
1.0
 94
        2
 62
     0
340
11
144
4.5
309
CONTENTFORMAT_END
171
     1
301
MARGIN
  1
CELLMARGIN_BEGIN
 40
1.5
 40
1.5
 40
1.5
 40
1.5
 40
0.18
 40
0.18
309
CELLMARGIN_END
 94
        6
 95
        1
302
GRIDFORMAT
  1
GRIDFORMAT_BEGIN
 90
        0
 91
        1
 62
     0
 92
       -2
340
0
 93
        0
 40
0.045
309
GRIDFORMAT_END
 95
        2
302
GRIDFORMAT
  1
GRIDFORMAT_BEGIN
 90
        0
 91
        1
 62
     0
 92
       -2
340
0
 93
        0
 40
0.045
309
GRIDFORMAT_END
 95
        4
302
GRIDFORMAT
  1
GRIDFORMAT_BEGIN
 90
        0
 91
        1
 62
     0
 92
       -2
340
0
 93
        0
 40
0.045
309
GRIDFORMAT_END
 95
        8
302
GRIDFORMAT
  1
GRIDFORMAT_BEGIN
 90
        0
 91
        1
 62
     0
 92
       -2
340
0
 93
        0
 40
0.045
309
GRIDFORMAT_END
 95
       16
302
GRIDFORMAT
  1
GRIDFORMAT_BEGIN
 90
        0
 91
        1
 62
     0
 92
       -2
340
0
 93
        0
 40
0.045
309
GRIDFORMAT_END
 95
       32
302
GRIDFORMAT
  1
GRIDFORMAT_BEGIN
 90
        0
 91
        1
 62
     0
 92
       -2
340
0
 93
        0
 40
0.045
309
GRIDFORMAT_END
309
TABLEFORMAT_END
  1
CELLSTYLE_BEGIN
 90
        3
 91
        2
300
_DATA
309
CELLSTYLE_END
  0
ENDSEC
  0
EOF
